<svg width="50" height="50" viewBox="0 0 50 50" fill="none" xmlns="http://www.w3.org/2000/svg">
<path d="M35.5397 32.3354C36.5143 31.6699 37.6573 31.2939 38.8367 31.2509C40.016 31.2079 41.1835 31.4997 42.2039 32.0925C43.2243 32.6854 44.0561 33.555 44.6029 34.6008C45.1497 35.6466 45.3893 36.8258 45.2939 38.0021C42.7942 38.8757 40.1392 39.2156 37.5001 39C37.492 36.6388 36.812 34.3266 35.5397 32.3375C34.4103 30.5662 32.8524 29.1084 31.0102 28.099C29.1679 27.0895 27.1008 26.5611 25.0001 26.5625C22.8998 26.5614 20.8331 27.09 18.9912 28.0995C17.1493 29.1089 15.5918 30.5665 14.4626 32.3375M37.498 38.9979L37.5001 39.0625C37.5001 39.5312 37.4751 39.9937 37.423 40.45C33.6425 42.619 29.3586 43.757 25.0001 43.75C20.4793 43.75 16.2355 42.55 12.5772 40.45C12.5236 39.9679 12.4979 39.483 12.5001 38.9979M12.5001 38.9979C9.86184 39.2214 7.20825 38.8827 4.71053 38.0042C4.61543 36.8282 4.8551 35.6494 5.40184 34.6039C5.94858 33.5585 6.78005 32.6892 7.80012 32.0964C8.82018 31.5037 9.98719 31.2118 11.1662 31.2544C12.3452 31.2971 13.488 31.6726 14.4626 32.3375M12.5001 38.9979C12.5076 36.6369 13.191 34.3268 14.4626 32.3375M31.2501 14.0625C31.2501 15.7201 30.5916 17.3098 29.4195 18.4819C28.2474 19.654 26.6577 20.3125 25.0001 20.3125C23.3425 20.3125 21.7528 19.654 20.5807 18.4819C19.4086 17.3098 18.7501 15.7201 18.7501 14.0625C18.7501 12.4049 19.4086 10.8152 20.5807 9.64308C21.7528 8.47098 23.3425 7.8125 25.0001 7.8125C26.6577 7.8125 28.2474 8.47098 29.4195 9.64308C30.5916 10.8152 31.2501 12.4049 31.2501 14.0625ZM43.7501 20.3125C43.7501 20.9281 43.6289 21.5376 43.3933 22.1063C43.1577 22.675 42.8124 23.1918 42.3772 23.6271C41.9419 24.0623 41.4252 24.4076 40.8564 24.6432C40.2877 24.8788 39.6782 25 39.0626 25C38.447 25 37.8375 24.8788 37.2688 24.6432C36.7001 24.4076 36.1833 24.0623 35.748 23.6271C35.3128 23.1918 34.9675 22.675 34.7319 22.1063C34.4964 21.5376 34.3751 20.9281 34.3751 20.3125C34.3751 19.0693 34.869 17.877 35.748 16.9979C36.6271 16.1189 37.8194 15.625 39.0626 15.625C40.3058 15.625 41.4981 16.1189 42.3772 16.9979C43.2562 17.877 43.7501 19.0693 43.7501 20.3125ZM15.6251 20.3125C15.6251 20.9281 15.5039 21.5376 15.2683 22.1063C15.0327 22.675 14.6874 23.1918 14.2522 23.6271C13.8169 24.0623 13.3002 24.4076 12.7314 24.6432C12.1627 24.8788 11.5532 25 10.9376 25C10.322 25 9.7125 24.8788 9.14378 24.6432C8.57507 24.4076 8.05832 24.0623 7.62305 23.6271C7.18777 23.1918 6.8425 22.675 6.60693 22.1063C6.37136 21.5376 6.25011 20.9281 6.25011 20.3125C6.25011 19.0693 6.74397 17.877 7.62305 16.9979C8.50212 16.1189 9.69441 15.625 10.9376 15.625C12.1808 15.625 13.3731 16.1189 14.2522 16.9979C15.1313 17.877 15.6251 19.0693 15.6251 20.3125Z" stroke="black" stroke-width="1.5" stroke-linecap="round" stroke-linejoin="round"/>
</svg>
