<svg width="78" height="78" viewBox="0 0 78 78" fill="none" xmlns="http://www.w3.org/2000/svg">
<path d="M57.2029 25.818C57.2465 35.6375 49.2773 44.0029 39.0164 44.0162C29.0058 44.0279 20.7893 35.958 20.7971 25.7993C20.8049 15.508 29.1852 7.57774 39.0335 7.5988C49.1166 7.61986 57.252 15.8512 57.2029 25.818ZM39.7192 18.6288C39.6872 21.5663 42.1496 23.9468 45.0356 23.946C47.7945 23.946 50.3474 21.7184 50.3537 18.621C50.3599 15.4947 47.8062 13.2827 45.0622 13.2772C42.2261 13.2717 39.6856 15.6351 39.7192 18.6288Z" fill="#DB353A"/>
<path d="M74.2639 61.4508C74.2038 61.4305 74.1859 61.4437 74.1671 61.4749C73.7202 62.2331 73.019 62.6449 72.1898 62.8072C70.7227 63.0981 69.3561 62.8165 68.1487 61.918C67.1534 61.177 66.5949 60.1544 66.4327 58.936C66.2528 57.7038 66.4462 56.4459 66.988 55.3246C67.7782 53.6866 69.0886 52.6999 70.8553 52.3177C71.5712 52.1531 72.3105 52.1161 73.0393 52.2085C74.8574 52.4574 76.0945 53.4402 76.7661 55.1367C77.0011 55.7106 77.1229 56.3245 77.1249 56.9447C77.1116 58.7707 77.1896 60.5943 77.2216 62.4195C77.2367 63.14 77.1139 63.8567 76.8597 64.531C76.2747 66.0785 75.1975 67.1331 73.6305 67.6557C72.3682 68.0815 71.0069 68.1168 69.7243 67.7571C69.2504 67.6328 68.803 67.4238 68.4037 67.1401C67.729 66.6549 67.3491 66.0192 67.3897 65.1636C67.4037 64.8625 67.3897 64.5598 67.3936 64.258C67.3936 64.1987 67.4069 64.1363 67.4677 64.1168C67.4964 64.1106 67.5263 64.1127 67.5539 64.1228C67.5815 64.1329 67.6057 64.1505 67.6237 64.1737C67.8964 64.4306 68.2092 64.6413 68.5496 64.7977C69.0191 65.0157 69.5161 65.1687 70.0269 65.2525C70.5478 65.3398 71.0767 65.3691 71.6041 65.3398C72.0358 65.3258 72.4619 65.2377 72.8638 65.0793C73.6313 64.7673 74.0899 64.1956 74.2506 63.3914C74.3368 62.9812 74.3573 62.56 74.3114 62.1434C74.2865 61.9117 74.2795 61.6738 74.2639 61.4508ZM74.2085 57.5508C74.2085 56.8441 74.1305 56.4042 73.9363 55.9736C73.5525 55.1101 72.817 54.7116 71.8973 54.7584C70.9777 54.8052 70.2593 55.2622 69.8101 56.0758C69.5628 56.5072 69.4148 56.9884 69.3767 57.4842C69.3387 57.98 69.4116 58.4781 69.5901 58.9423C69.9622 59.9563 70.9161 60.6645 72.2866 60.379C73.1446 60.1996 73.6906 59.6412 73.9971 58.837C74.147 58.4259 74.2186 57.9905 74.2085 57.5531V57.5508Z" fill="#686767"/>
<path d="M10.8217 53.0649C10.7141 53.0556 10.6657 52.9752 10.6056 52.9183C9.81472 52.1882 8.86546 51.8263 7.8109 51.6968C7.18268 51.6197 6.54731 51.621 5.9194 51.7007C5.48922 51.7414 5.06962 51.8579 4.67998 52.0447C4.04116 52.3723 3.73072 52.8918 3.75178 53.6141C3.7539 53.7799 3.79188 53.9432 3.86311 54.0929C3.93433 54.2427 4.03712 54.3752 4.1644 54.4814C4.36268 54.6483 4.58519 54.784 4.82428 54.8839C5.3669 55.1132 5.92926 55.2925 6.5044 55.4198C6.99268 55.5368 7.48564 55.6382 7.97002 55.7716C8.62501 55.945 9.24314 56.2357 9.79445 56.6296C10.5869 57.2052 11.1204 57.9641 11.2374 58.9407C11.5003 61.1013 10.64 63.1753 8.2633 64.0442C7.19314 64.4342 6.0793 64.5278 4.94986 64.4389C4.38997 64.4074 3.836 64.3079 3.30016 64.1425C2.92989 64.0273 2.57756 63.8608 2.2534 63.648C1.51006 63.1426 1.12318 62.4413 1.10446 61.542C1.09588 61.1395 1.10446 60.737 1.10446 60.3346C1.10446 60.2449 1.17778 60.2066 1.2472 60.2566C1.33924 60.3252 1.42582 60.4016 1.5163 60.4718C2.89066 61.5389 4.44364 61.9538 6.16744 61.7526C6.54021 61.7186 6.90615 61.6311 7.25398 61.4929C7.63774 61.3306 7.9513 61.0873 8.1268 60.7004C8.33818 60.2324 8.34286 59.7511 8.22586 59.266C8.16658 59.021 7.99186 58.8409 7.79374 58.6903C7.57143 58.5308 7.32775 58.4035 7.0699 58.312C6.40908 58.0726 5.73116 57.8833 5.0419 57.7457C4.52068 57.6418 4.00786 57.4995 3.50764 57.3199C2.95179 57.121 2.43397 56.8287 1.9765 56.4556C1.08106 55.7021 0.701983 54.7256 0.794023 53.586C0.960943 51.5806 2.07556 50.2577 3.88048 49.4738C4.51624 49.2011 5.19752 49.05 5.88898 49.0284C6.72358 48.9965 7.55584 49.0113 8.37406 49.2102C8.82344 49.3107 9.25463 49.4799 9.65248 49.7117C10.0675 49.9478 10.4067 50.297 10.6306 50.7187C10.7581 50.9454 10.833 51.1978 10.8498 51.4574C10.863 51.9597 10.8669 52.4628 10.8708 52.9659C10.8708 52.9971 10.842 53.033 10.8217 53.0649Z" fill="#686767"/>
<path d="M25.7252 59.5709C25.194 59.5709 24.662 59.5709 24.1301 59.5709C23.9678 59.5709 23.9249 59.6271 23.9593 59.7839C24.044 60.1791 24.2245 60.5474 24.485 60.8564C24.9577 61.4188 25.5723 61.7354 26.279 61.8938C26.8624 62.0248 27.449 62.0022 28.0387 61.9531C28.4831 61.9173 28.9219 61.8309 29.3467 61.6957C29.856 61.5382 30.3296 61.2825 30.7406 60.943C30.8295 60.865 30.9176 60.9071 30.9176 61.0171C30.9176 61.4336 30.9426 61.8493 30.874 62.2651C30.8311 62.5574 30.7277 62.8375 30.5704 63.0876C30.4132 63.3376 30.2055 63.5522 29.9606 63.7174C29.5428 64.0011 29.0696 64.1928 28.5722 64.2798C27.6947 64.4514 26.8117 64.5239 25.9155 64.4062C23.7728 64.1261 21.7409 62.5802 21.1052 60.2105C20.9081 59.4738 20.8405 58.7084 20.9056 57.9485C20.9493 57.2744 21.078 56.6085 21.2885 55.9666C21.7152 54.7326 22.4367 53.7209 23.5505 53.0143C24.2923 52.5463 25.1066 52.2959 25.9779 52.1976C26.8798 52.0827 27.7961 52.2134 28.6299 52.5759C30.023 53.1905 30.9153 54.2365 31.2437 55.7341C31.3671 56.2531 31.3849 56.7916 31.2959 57.3175C31.1813 57.9415 30.874 58.4392 30.3381 58.7886C29.9465 59.0314 29.5154 59.2038 29.0644 59.2979C28.3769 59.4521 27.6759 59.5378 26.9716 59.5538C26.5551 59.5663 26.1386 59.5538 25.7236 59.5538L25.7252 59.5709ZM25.3757 57.4977C25.9576 57.4915 26.5886 57.4977 27.2158 57.408C27.5149 57.3735 27.8079 57.2987 28.087 57.1857C28.2428 57.1259 28.3761 57.0192 28.4684 56.8802C28.5608 56.7413 28.6077 56.5771 28.6026 56.4104C28.612 55.7435 28.3468 55.1561 27.6666 54.8504C27.0588 54.577 26.3752 54.5219 25.7314 54.6944C24.9553 54.8956 24.4475 55.4182 24.1324 56.1405C23.9803 56.4876 23.9366 56.8581 23.9039 57.2325C23.8836 57.4579 23.9078 57.4907 24.1231 57.493C24.524 57.5008 24.9257 57.4977 25.3757 57.4977Z" fill="#686767"/>
<path d="M64.5652 60.3314C64.5652 61.4234 64.5652 62.5154 64.5652 63.6074C64.5652 63.694 64.5652 63.7806 64.5652 63.8664C64.5582 64.1916 64.5527 64.1986 64.2212 64.2018C63.8765 64.2018 63.5309 64.2142 63.1916 64.1339C62.4491 63.9584 61.9257 63.5411 61.7042 62.7915C61.6379 62.5677 61.6464 62.336 61.6464 62.1059C61.6464 60.6535 61.6464 59.2014 61.6464 57.7496C61.6517 57.3034 61.603 56.8581 61.5014 56.4236C61.4439 56.1858 61.353 55.9573 61.2315 55.745C61.0188 55.3641 60.6756 55.0729 60.2651 54.9252C59.764 54.7332 59.2157 54.7013 58.6957 54.834C58.2444 54.9458 57.8522 55.2245 57.5982 55.614C57.3746 55.9504 57.2318 56.334 57.1809 56.7348C57.1376 57.0481 57.1157 57.3639 57.1154 57.6802C57.1191 59.6936 57.1191 61.7065 57.1154 63.7189C57.1154 64.2462 57.1497 64.2018 56.6209 64.2018C56.3337 64.2127 56.0462 64.1938 55.7629 64.1456C54.8745 63.9646 54.316 63.3656 54.2208 62.4717C54.2054 62.3144 54.1981 62.1564 54.199 61.9983C54.199 60.4591 54.199 58.9206 54.199 57.383C54.199 56.759 54.2575 56.1475 54.4525 55.5539C54.9579 54.0165 55.9665 52.9651 57.5117 52.4635C58.6731 52.0868 59.8517 52.033 61.0357 52.3731C62.8944 52.9089 63.9997 54.1554 64.4256 56.0258C64.5246 56.5061 64.5712 56.9957 64.5644 57.486C64.5691 58.4329 64.5652 59.3821 64.5652 60.3314Z" fill="#676767"/>
<path d="M13.2538 56.4408C13.2538 55.2466 13.2538 54.0532 13.2538 52.8598C13.2487 52.6299 13.2612 52.3999 13.2912 52.1719C13.4402 51.2132 14.0065 50.5292 14.7732 49.9925C15.1492 49.7305 15.586 49.7359 16.0212 49.771C16.0578 49.7732 16.092 49.7898 16.1164 49.8171C16.1408 49.8444 16.1534 49.8803 16.1515 49.9169C16.157 50.0175 16.157 50.1181 16.157 50.2187C16.157 50.7936 16.157 51.3692 16.157 51.9441C16.157 52.0447 16.157 52.1453 16.157 52.246C16.1541 52.2675 16.1561 52.2895 16.1628 52.3102C16.1695 52.3309 16.1807 52.3499 16.1957 52.3657C16.2106 52.3815 16.2289 52.3938 16.2492 52.4017C16.2695 52.4096 16.2912 52.4129 16.313 52.4113C16.4284 52.4113 16.5431 52.416 16.6577 52.416H19.6779C19.7645 52.416 19.8503 52.416 19.9368 52.416C20.2169 52.4222 20.2231 52.4269 20.2278 52.7116C20.2278 52.9565 20.2278 53.2007 20.2278 53.4448C20.2223 54.2763 19.7192 54.8621 18.8955 54.9814C18.6817 55.0091 18.4661 55.0224 18.2505 55.0212C17.7185 55.0267 17.1866 55.0212 16.6546 55.0212C16.554 55.0212 16.4534 55.0212 16.3527 55.0212C16.2131 55.029 16.1679 55.0703 16.1593 55.1975C16.1531 55.2833 16.1546 55.3699 16.1546 55.4564C16.1546 56.822 16.1546 58.188 16.1546 59.5546C16.1435 59.8854 16.1784 60.2161 16.2584 60.5374C16.4596 61.2394 16.8909 61.6294 17.6444 61.698C18.4502 61.7666 19.2543 61.7245 20.0086 61.3688C20.1685 61.2908 20.2231 61.3275 20.2254 61.4952C20.2254 61.8072 20.2371 62.1286 20.2254 62.4437C20.1888 63.2034 19.823 63.7447 19.1241 64.0575C18.8618 64.1767 18.5817 64.2521 18.2949 64.2806C17.4884 64.3586 16.6858 64.3274 15.9035 64.0887C14.5977 63.6917 13.778 62.8228 13.4301 61.5077C13.3067 61.034 13.2459 60.5463 13.2491 60.0569C13.2491 58.8494 13.2491 57.6417 13.2491 56.4338L13.2538 56.4408Z" fill="#686868"/>
<path d="M41.0366 54.9378C41.0366 52.9254 41.0366 50.9135 41.0366 48.9022C41.0366 48.4888 41.0234 48.5051 41.4391 48.5067C41.6551 48.5067 41.8704 48.5067 42.0857 48.5114C42.3304 48.5178 42.5723 48.5658 42.801 48.6533C43.3899 48.8655 43.7424 49.2875 43.893 49.8889C43.9486 50.1415 43.9732 50.4001 43.9663 50.6587C43.9663 53.7912 43.9663 56.9237 43.9663 60.0561C43.9663 60.2574 43.9663 60.4594 43.9795 60.6591C44.0287 61.2644 44.3438 61.6427 44.9241 61.7979C45.1741 61.865 45.432 61.8986 45.6909 61.8977C45.9787 61.8977 46.2657 61.8977 46.5535 61.9024C46.6495 61.9024 46.7244 61.9398 46.7275 62.0475C46.7384 62.4375 46.7548 62.8275 46.6495 63.2034C46.5972 63.4212 46.4906 63.6222 46.3396 63.7877C46.1886 63.9531 45.9981 64.0776 45.786 64.1496C45.5852 64.2242 45.3754 64.2717 45.162 64.2908C44.5163 64.3499 43.8653 64.2824 43.2456 64.0919C42.0639 63.7175 41.3915 62.8938 41.1396 61.6988C41.069 61.3316 41.0371 60.9581 41.0444 60.5842C41.0397 58.7023 41.0371 56.8202 41.0366 54.9378Z" fill="#686868"/>
<path d="M36.0017 60.4499C36.0017 61.5725 36.0017 62.6945 36.0017 63.8156C36.0017 64.2056 35.997 64.2056 35.6265 64.2056C35.256 64.2056 34.8785 64.2134 34.5103 64.1276C33.8481 63.9794 33.3528 63.6315 33.1422 62.9576C33.0749 62.7372 33.0415 62.5078 33.0432 62.2774C33.0432 60.4655 33.0346 58.6535 33.0486 56.8416C33.0421 56.0765 33.2018 55.3191 33.5166 54.6217C34.1086 53.3503 35.1047 52.6171 36.4806 52.3886C37.048 52.2833 37.6301 52.2857 38.1966 52.3956C38.4652 52.4476 38.7226 52.5463 38.9571 52.6873C39.2206 52.8388 39.44 53.0566 39.5934 53.319C39.7467 53.5814 39.8288 53.8794 39.8315 54.1833C39.8424 54.4704 39.837 54.7582 39.8315 55.046C39.8315 55.2551 39.7753 55.2878 39.5624 55.2207C39.4665 55.1911 39.3729 55.1529 39.2769 55.1225C38.7267 54.9479 38.1448 54.8968 37.5726 54.9727C36.9159 55.0601 36.4627 55.4142 36.2193 56.0296C36.1096 56.2962 36.0458 56.5794 36.0306 56.8673C36.0165 57.1973 36.0048 57.528 36.004 57.8587C35.9994 58.7222 36.0017 59.5848 36.0017 60.4499Z" fill="#686868"/>
<path d="M47.8593 57.0351C47.8593 55.7112 47.8593 54.388 47.8593 53.0657C47.8593 52.6827 47.8593 52.6819 48.2314 52.6757C48.5763 52.6611 48.9218 52.6817 49.2625 52.7373C50.0347 52.8933 50.5105 53.3504 50.6969 54.1093C50.7614 54.3906 50.7916 54.6787 50.7866 54.9673C50.783 56.6932 50.783 58.4191 50.7866 60.1449C50.7866 60.3314 50.782 60.5193 50.7999 60.705C50.8553 61.2705 51.1072 61.6979 51.7928 61.8375C52.1047 61.8889 52.4208 61.9092 52.7366 61.8984C53.1212 61.8984 53.1196 61.8945 53.1173 62.2775C53.1285 62.5936 53.1052 62.9101 53.0479 63.2213C52.9246 63.7673 52.6056 64.1081 52.0557 64.2353C51.874 64.2778 51.6885 64.3018 51.5019 64.307C51.0415 64.3219 50.5813 64.2694 50.1361 64.151C49.0441 63.8515 48.3546 63.1433 48.041 62.0653C47.9148 61.622 47.8533 61.1628 47.8585 60.7019C47.8585 59.4796 47.8585 58.2573 47.8585 57.0359L47.8593 57.0351Z" fill="#686868"/>
<path d="M47.6003 49.8702C47.6013 49.4207 47.7802 48.9899 48.098 48.672C48.4158 48.3541 48.8465 48.1749 49.296 48.1737C50.2413 48.1737 51.0525 48.9701 51.0229 49.8967C51.0168 50.3478 50.8344 50.7785 50.5147 51.0967C50.195 51.415 49.7634 51.5954 49.3124 51.5995C49.0856 51.6011 48.8609 51.5573 48.6513 51.4707C48.4417 51.3842 48.2516 51.2566 48.0921 51.0955C47.9325 50.9343 47.8068 50.7429 47.7224 50.5325C47.6379 50.3221 47.5964 50.0969 47.6003 49.8702Z" fill="#686868"/>
<path d="M47.5418 68.2562C47.626 68.1782 47.6978 68.1111 47.7758 68.0534C48.2742 67.6813 49.0714 67.8818 49.1798 68.583C49.2009 68.6814 49.2147 68.7813 49.2211 68.8817C49.2258 69.2982 49.2211 69.7155 49.2211 70.1297C49.2211 70.2163 49.2211 70.313 49.1072 70.331C49.057 70.339 49.0056 70.3318 48.9595 70.3102C48.9135 70.2887 48.875 70.2538 48.8491 70.2101C48.8079 70.1334 48.7908 70.0462 48.7999 69.9597C48.7999 69.6438 48.7999 69.3271 48.7999 69.0104C48.8047 68.8519 48.7766 68.6942 48.7172 68.5471C48.6307 68.3466 48.4786 68.2632 48.2282 68.2749C47.9942 68.2858 47.8288 68.3958 47.7797 68.6056C47.747 68.7595 47.7305 68.9163 47.7305 69.0736C47.7235 69.4191 47.7305 69.7639 47.7305 70.1094C47.7305 70.1937 47.7399 70.2912 47.6377 70.3286C47.5743 70.3438 47.5075 70.3343 47.4508 70.302C47.3942 70.2697 47.352 70.217 47.3327 70.1547C47.3132 70.0563 47.3038 69.9562 47.3047 69.8559C47.3008 69.597 47.3047 69.338 47.3008 69.0759C47.2996 68.9324 47.2834 68.7894 47.2524 68.6493C47.2285 68.5354 47.1639 68.4341 47.0708 68.3643C46.9776 68.2945 46.8622 68.2611 46.7462 68.2702C46.502 68.2749 46.3624 68.388 46.2782 68.6399C46.2371 68.7923 46.2205 68.9503 46.229 69.1079C46.229 69.4675 46.229 69.8271 46.2228 70.1867C46.2231 70.2115 46.217 70.2359 46.205 70.2576C46.193 70.2793 46.1756 70.2976 46.1544 70.3105C46.1332 70.3234 46.109 70.3305 46.0842 70.3313C46.0594 70.332 46.0349 70.3262 46.013 70.3146C45.8507 70.2553 45.8071 70.125 45.8063 69.9729C45.8063 69.5985 45.7977 69.2249 45.8117 68.8513C45.8196 68.7078 45.8526 68.5668 45.9092 68.4348C46.0067 68.2073 46.1889 68.0268 46.4172 67.9314C46.6455 67.836 46.902 67.8333 47.1323 67.9239C47.2992 67.998 47.4107 68.1306 47.5418 68.2562Z" fill="#706E6E"/>
<path d="M56.7388 68.7329C56.7599 68.8109 56.8308 68.8328 56.8854 68.8725C57.3534 69.2095 57.2045 69.8655 56.8457 70.1416C56.7667 70.2037 56.6775 70.2515 56.582 70.2828C56.2084 70.393 55.812 70.4003 55.4347 70.3039C55.1882 70.2461 55.0517 70.0597 55.022 69.8054C55.0151 69.7339 55.0125 69.662 55.0142 69.5901C55.0142 68.9576 55.0142 68.325 55.0142 67.6924C55.0142 67.3523 55.0181 67.3492 55.3645 67.2821C55.7044 67.2176 56.0527 67.211 56.3948 67.2626C56.8137 67.3235 57.1499 67.6175 57.1077 68.1315C57.1014 68.2911 57.0341 68.4421 56.9198 68.5535C56.862 68.612 56.7684 68.6401 56.7388 68.7329ZM55.4339 69.3569C55.4339 69.4287 55.4339 69.4997 55.4339 69.5714C55.4323 69.6 55.4323 69.6287 55.4339 69.6572C55.4526 69.8343 55.5212 69.9349 55.6811 69.9638C55.9337 70.021 56.1972 70.0072 56.4424 69.924C56.6764 69.8343 56.7692 69.6572 56.7458 69.3718C56.7263 69.1377 56.6234 69.0067 56.3839 68.9607C56.2153 68.9303 56.0443 68.9146 55.873 68.9139C55.4136 68.9084 55.4315 68.8928 55.4339 69.3585V69.3569ZM55.9159 68.5769C56.0727 68.5692 56.2289 68.5528 56.3839 68.5278C56.5805 68.4864 56.6858 68.3328 56.6959 68.1198C56.7037 67.8944 56.6179 67.7525 56.4323 67.6768C56.2571 67.6157 56.0711 67.5921 55.8863 67.6074C55.4604 67.6206 55.4331 67.6472 55.4339 68.0754C55.4292 68.5995 55.3925 68.5621 55.9159 68.5754V68.5769Z" fill="#737070"/>
<path d="M27.2805 68.8694C27.2688 69.0704 27.2316 69.2691 27.1697 69.4606C26.9537 70.0573 26.4802 70.3966 25.8625 70.3842C25.573 70.383 25.292 70.2869 25.0625 70.1104C24.8331 69.934 24.668 69.687 24.5926 69.4076C24.4646 68.9928 24.475 68.5477 24.6223 68.1393C24.843 67.5114 25.3243 67.1986 26.0177 67.2306C26.5972 67.2571 27.0535 67.6354 27.2119 68.2329C27.2682 68.4401 27.2914 68.6549 27.2805 68.8694ZM24.9218 68.7618C24.9155 68.9485 24.9419 69.1348 24.9998 69.3124C25.1222 69.7531 25.4623 70.0004 25.9217 69.9988C26.3507 69.9988 26.6737 69.7461 26.7992 69.3156C26.8929 68.984 26.8929 68.6331 26.7992 68.3016C26.6807 67.8507 26.3648 67.6081 25.8913 67.5996C25.4444 67.5996 25.1238 67.8258 24.9943 68.2548C24.9387 68.4177 24.9141 68.5897 24.9218 68.7618Z" fill="#706E6E"/>
<path d="M32.2975 69.795C32.3716 70.0446 32.2647 70.1796 32.083 70.274C31.4785 70.586 30.6977 70.2958 30.4738 69.6578C30.3947 69.4479 30.3658 69.2224 30.3894 68.9993C30.4129 68.7763 30.4883 68.5618 30.6096 68.3731C30.7475 68.142 30.9708 67.9742 31.2312 67.9061C31.4916 67.838 31.7684 67.8749 32.0019 68.0088C32.148 68.0889 32.266 68.2118 32.3401 68.3611C32.4142 68.5103 32.4407 68.6787 32.416 68.8434C32.4097 68.9227 32.3819 68.9987 32.3356 69.0633C32.2893 69.1279 32.2262 69.1786 32.1532 69.21C31.9946 69.2804 31.8227 69.3155 31.6493 69.313C31.42 69.313 31.1899 69.313 30.9598 69.3224C30.9422 69.3235 30.9251 69.3286 30.9098 69.3374C30.8946 69.3462 30.8815 69.3583 30.8717 69.373C30.8619 69.3876 30.8556 69.4043 30.8533 69.4218C30.851 69.4392 30.8527 69.457 30.8584 69.4737C30.9364 69.7724 31.1836 69.9682 31.5214 69.9947C31.7413 70.0119 31.8903 69.9744 32.2975 69.795ZM31.4044 68.9729C31.473 68.9682 31.6462 68.9659 31.8147 68.9402C31.9621 68.9175 32.0237 68.8044 32.0042 68.6547C31.9986 68.5752 31.9695 68.4991 31.9204 68.4363C31.8713 68.3735 31.8047 68.3268 31.7289 68.3021C31.3849 68.1867 30.9707 68.2943 30.849 68.7444C30.8085 68.8941 30.8529 68.9659 31.0011 68.9721C31.101 68.9768 31.2 68.9729 31.4044 68.9729Z" fill="#737070"/>
<path d="M51.7039 69.7647C51.7398 70.1017 51.5916 70.2491 51.3708 70.3154C50.5542 70.558 49.9294 70.1492 49.7913 69.4324C49.7174 69.0757 49.7836 68.7042 49.9762 68.395C50.2523 67.9442 50.7812 67.7546 51.246 67.9411C51.3896 67.9916 51.517 68.0796 51.615 68.1961C51.7129 68.3126 51.7778 68.4532 51.803 68.6033C51.8498 68.8583 51.7772 69.175 51.3989 69.2593C51.2873 69.2851 51.1739 69.302 51.0596 69.31C50.8872 69.3193 50.7141 69.31 50.5425 69.3185C50.4465 69.3185 50.3202 69.2772 50.2664 69.3763C50.1969 69.5057 50.282 69.6243 50.3646 69.7249C50.5573 69.9589 50.8147 70.019 51.1017 69.9893C51.3163 69.9587 51.5217 69.8821 51.7039 69.7647ZM50.2219 68.9512C50.5328 68.9904 50.8474 68.9888 51.1579 68.9465C51.381 68.9184 51.459 68.7406 51.3576 68.5346C51.3303 68.4763 51.291 68.4244 51.2424 68.3822C51.1937 68.34 51.1368 68.3085 51.0752 68.2897C50.622 68.1454 50.2375 68.4356 50.2258 68.9519L50.2219 68.9512Z" fill="#737070"/>
<path d="M57.7847 68.5012C57.7262 68.3304 57.7996 68.2017 57.9236 68.0901C58.2473 67.8 58.9142 67.7922 59.2496 68.0745C59.3238 68.1322 59.3851 68.2049 59.4294 68.2878C59.4738 68.3707 59.5002 68.462 59.507 68.5558C59.5234 68.9458 59.5296 69.3311 59.507 69.7172C59.5019 69.8481 59.4566 69.9742 59.3773 70.0784C59.2981 70.1827 59.1887 70.26 59.0639 70.2999C58.7672 70.4192 58.4355 70.4169 58.1404 70.2937C57.8518 70.1735 57.667 69.9692 57.6724 69.64C57.6686 69.4949 57.7109 69.3524 57.7934 69.2329C57.8758 69.1135 57.9941 69.0233 58.1311 68.9754C58.2512 68.9293 58.3763 68.8973 58.5039 68.8803C58.631 68.8608 58.7613 68.8631 58.8939 68.8538C59.0663 68.8413 59.1232 68.7672 59.0889 68.6073C59.0768 68.5209 59.0353 68.4414 58.9714 68.3821C58.9074 68.3228 58.8249 68.2875 58.7379 68.282C58.4955 68.2385 58.2455 68.276 58.0265 68.3889C57.9485 68.4287 57.8947 68.5074 57.7847 68.5012ZM58.787 69.2173C58.5055 69.2173 58.3822 69.2438 58.2543 69.3311C58.213 69.3591 58.1784 69.3958 58.1529 69.4387C58.1275 69.4815 58.1118 69.5295 58.107 69.5791C58.1023 69.6288 58.1085 69.6788 58.1253 69.7258C58.1422 69.7727 58.1692 69.8153 58.2044 69.8506C58.3924 70.0175 58.6139 70.0331 58.8448 69.9598C59.06 69.8912 59.1022 69.7149 59.1053 69.5183C59.1053 69.4762 59.1053 69.4333 59.1053 69.3904C59.0975 69.2617 59.0593 69.2258 58.9165 69.218C58.8728 69.2157 58.8299 69.2173 58.787 69.2173Z" fill="#737070"/>
<path d="M63.1496 68.8389C63.3056 68.8217 63.3407 68.7359 63.3976 68.6759C63.5747 68.4887 63.7494 68.2976 63.9257 68.1096C63.9988 68.0236 64.0969 67.9625 64.2062 67.9345C64.3156 67.9066 64.431 67.9133 64.5364 67.9536C64.5364 68.0534 64.4584 68.0831 64.4132 68.1314C64.2033 68.3475 63.9865 68.5573 63.7814 68.7773C63.5177 69.0596 63.5177 69.0113 63.7712 69.3357C64.0005 69.6298 64.2283 69.9254 64.5473 70.1329C64.6074 70.1719 64.5824 70.2803 64.513 70.3092C64.4416 70.3445 64.3613 70.3574 64.2825 70.3461C64.2036 70.3348 64.1301 70.2999 64.0715 70.246C63.9556 70.1393 63.8467 70.0252 63.7455 69.9044C63.5957 69.7304 63.4538 69.5495 63.3087 69.3716C63.2976 69.354 63.2808 69.3406 63.261 69.334C63.2412 69.3273 63.2198 69.3276 63.2003 69.335C63.1441 69.3545 63.1535 69.4036 63.1527 69.4426C63.1472 69.7008 63.148 69.959 63.1402 70.2171C63.1384 70.2384 63.1313 70.2589 63.1198 70.2768C63.1082 70.2948 63.0924 70.3096 63.0738 70.3201C63.0552 70.3305 63.0344 70.3363 63.013 70.3368C62.9917 70.3374 62.9706 70.3327 62.9514 70.3232C62.9095 70.3126 62.8713 70.2908 62.8408 70.2602C62.8103 70.2296 62.7887 70.1912 62.7783 70.1493C62.761 70.0651 62.7518 69.9794 62.751 69.8934C62.751 69.0474 62.751 68.2006 62.751 67.353C62.751 67.3249 62.751 67.296 62.751 67.2672C62.7557 67.179 62.7611 67.0878 62.8773 67.0808C62.9277 67.0739 62.9789 67.0845 63.0225 67.1107C63.066 67.137 63.0993 67.1773 63.1168 67.2251C63.141 67.3073 63.1515 67.3929 63.148 67.4786C63.148 67.7945 63.148 68.1104 63.148 68.4263L63.1496 68.8389Z" fill="#706E6E"/>
<path d="M18.7738 69.1314C18.7789 69.311 18.7487 69.4899 18.6849 69.6579C18.5367 70.0705 18.2606 70.331 17.8058 70.3731C17.3511 70.4152 16.926 70.2132 16.7286 69.81C16.6117 69.5854 16.555 69.3344 16.5639 69.0814C16.5727 68.8284 16.647 68.582 16.7793 68.3662C16.9837 68.0105 17.3253 67.8584 17.7239 67.8748C17.9205 67.8747 18.1128 67.9325 18.2768 68.0408C18.4409 68.1491 18.5695 68.3032 18.6467 68.484C18.7399 68.6866 18.7835 68.9085 18.7738 69.1314ZM18.3487 69.1524C18.362 68.9587 18.3198 68.7653 18.227 68.5947C18.0047 68.1922 17.4002 68.1587 17.1444 68.5323C16.9205 68.8576 16.9424 69.4434 17.1927 69.746C17.265 69.8359 17.3598 69.905 17.4676 69.9461C17.5753 69.9872 17.6921 69.9989 17.8058 69.98C18.0562 69.948 18.2106 69.7897 18.2925 69.5518C18.3341 69.4229 18.3531 69.2878 18.3487 69.1524Z" fill="#706E6E"/>
<path d="M45.2595 69.108C45.263 69.3054 45.2275 69.5015 45.155 69.6852C45.0068 70.0814 44.7315 70.3271 44.297 70.3684C43.8625 70.4098 43.5061 70.2592 43.2588 69.8911C42.9585 69.4418 42.9921 68.6899 43.3243 68.264C43.7845 67.6743 44.758 67.7648 45.1059 68.4294C45.2083 68.6408 45.2609 68.873 45.2595 69.108ZM44.836 69.1618C44.8443 68.9534 44.7947 68.7468 44.6925 68.5651C44.4585 68.1899 43.8852 68.1657 43.6332 68.5214C43.4039 68.8451 43.4195 69.4317 43.6675 69.7359C43.9585 70.0915 44.5879 70.1032 44.7712 69.5611C44.8162 69.434 44.8382 69.2998 44.836 69.1649V69.1618Z" fill="#706E6E"/>
<path d="M19.3276 68.7063C19.3276 68.5051 19.3276 68.3046 19.3276 68.1034C19.3276 68.0254 19.344 67.9552 19.4267 67.9341C19.4616 67.925 19.4982 67.924 19.5336 67.9312C19.569 67.9384 19.6023 67.9535 19.631 67.9754C19.66 67.9966 19.6841 68.0237 19.7019 68.0549C19.7196 68.0861 19.7306 68.1207 19.734 68.1564C19.7441 68.2562 19.7496 68.3561 19.7504 68.4567C19.7504 68.686 19.7457 68.9161 19.7543 69.1454C19.7555 69.2886 19.7738 69.431 19.8089 69.5698C19.8275 69.6433 19.861 69.7122 19.9073 69.7722C19.9536 69.8322 20.0118 69.8821 20.0783 69.9186C20.1447 69.9552 20.2179 69.9777 20.2934 69.9848C20.3689 69.9919 20.445 69.9834 20.5171 69.9598C20.5949 69.9421 20.6665 69.9038 20.7245 69.8489C20.7824 69.794 20.8245 69.7245 20.8463 69.6478C20.8894 69.4956 20.9094 69.3379 20.9055 69.1798C20.9055 68.821 20.9055 68.4622 20.9055 68.1034C20.9055 68.0316 20.9055 67.9536 20.9984 67.9341C21.0332 67.9244 21.0699 67.9232 21.1053 67.9305C21.1407 67.9378 21.1738 67.9535 21.2019 67.9762C21.2442 68.014 21.2763 68.0618 21.2955 68.1151C21.3176 68.1831 21.3289 68.2541 21.3291 68.3257C21.3291 68.6704 21.3291 69.0144 21.3291 69.3592C21.3267 69.4165 21.3205 69.4735 21.3104 69.53C21.2051 70.2148 20.5772 70.5752 19.9313 70.3178C19.7962 70.2664 19.6757 70.1827 19.5805 70.0739C19.4853 69.9651 19.4183 69.8345 19.3853 69.6938C19.3484 69.5403 19.3267 69.3835 19.3206 69.2258C19.3097 69.0542 19.3206 68.8818 19.3206 68.7094L19.3276 68.7063Z" fill="#737070"/>
<path d="M36.1717 67.8796C36.0789 67.8796 36.0282 67.7969 35.9564 67.7571C35.8106 67.671 35.6464 67.6205 35.4773 67.61C35.3082 67.5995 35.139 67.6291 34.9836 67.6966C34.8281 67.764 34.6908 67.8672 34.583 67.9979C34.4751 68.1285 34.3997 68.2828 34.3629 68.4482C34.2904 68.759 34.3247 69.0852 34.4604 69.3741C34.6788 69.8725 35.2271 70.1018 35.7575 69.9411C35.8792 69.8979 35.9948 69.8392 36.1015 69.7664C36.1126 69.7607 36.1249 69.7577 36.1374 69.7577C36.1499 69.7577 36.1622 69.7607 36.1733 69.7664C36.1822 69.7772 36.1889 69.7896 36.1929 69.803C36.1969 69.8164 36.1982 69.8305 36.1967 69.8444C36.1888 69.9235 36.1624 69.9996 36.1196 70.0666C36.0768 70.1336 36.0187 70.1895 35.9502 70.2297C35.8534 70.2921 35.7453 70.3347 35.632 70.3553C35.3551 70.4126 35.0674 70.3844 34.807 70.2743C34.5467 70.1643 34.3259 69.9776 34.1741 69.7391C33.8138 69.1533 33.799 68.5434 34.132 67.9381C34.398 67.4553 34.93 67.1378 35.6359 67.2431C35.7586 67.2556 35.8753 67.3024 35.9727 67.3782C36.07 67.4539 36.1442 67.5555 36.1865 67.6713C36.2023 67.7043 36.2092 67.7409 36.2066 67.7774C36.204 67.8139 36.192 67.8491 36.1717 67.8796Z" fill="#737070"/>
<path d="M62.1309 69.5034C62.1309 69.7187 62.1309 69.934 62.1309 70.1492C62.1309 70.2358 62.1255 70.3271 62.0061 70.3364C61.9561 70.3463 61.9042 70.3388 61.859 70.3153C61.8138 70.2918 61.7779 70.2536 61.7573 70.207C61.7288 70.1261 61.715 70.0407 61.7167 69.955C61.7113 69.668 61.7167 69.3809 61.7121 69.097C61.712 68.9535 61.6997 68.8102 61.6754 68.6688C61.6286 68.4348 61.4695 68.3084 61.2214 68.2788C60.9313 68.2484 60.7441 68.3326 60.6364 68.5409C60.573 68.6702 60.543 68.8134 60.5491 68.9574C60.5491 69.3022 60.5491 69.6469 60.5491 69.9917C60.5507 70.0777 60.546 70.1637 60.535 70.2491C60.5241 70.3123 60.4672 70.3333 60.4056 70.3349C60.3549 70.3377 60.3047 70.3241 60.2625 70.2959C60.2203 70.2678 60.1884 70.2267 60.1716 70.1789C60.1471 70.1119 60.135 70.0411 60.1357 69.9698C60.1326 69.611 60.1326 69.2522 60.1357 68.8934C60.1414 68.7193 60.1899 68.5493 60.2771 68.3985C60.3642 68.2477 60.4872 68.1207 60.6352 68.0288C60.7832 67.9369 60.9516 67.8829 61.1254 67.8717C61.2992 67.8605 61.4731 67.8923 61.6317 67.9644C61.7632 68.0246 61.8761 68.1191 61.9584 68.238C62.0408 68.3568 62.0896 68.4957 62.0997 68.6399C62.1317 68.9238 62.1317 69.2125 62.1457 69.4979L62.1309 69.5034Z" fill="#706E6E"/>
<path d="M36.6397 68.7437C36.6397 68.5144 36.6397 68.285 36.6397 68.0557C36.6397 67.9606 36.7232 67.913 36.8191 67.9317C36.8765 67.9404 36.9293 67.9683 36.9689 68.0108C37.0086 68.0532 37.0327 68.1078 37.0375 68.1657C37.0497 68.2794 37.0549 68.3938 37.0531 68.5081C37.0586 68.8092 37.0492 69.1111 37.0687 69.4114C37.0851 69.6742 37.2138 69.8739 37.4805 69.9574C37.5481 69.9825 37.6202 69.9931 37.6922 69.9885C37.7641 69.9839 37.8343 69.9642 37.8981 69.9308C37.962 69.8973 38.0181 69.8508 38.0628 69.7942C38.1075 69.7376 38.1398 69.6723 38.1576 69.6025C38.1873 69.4771 38.2007 69.3483 38.1974 69.2195C38.2028 68.8615 38.1974 68.5027 38.202 68.1439C38.202 68.0612 38.1903 67.9637 38.3034 67.9364C38.3596 67.9232 38.4185 67.9303 38.47 67.9562C38.5215 67.9822 38.5622 68.0254 38.585 68.0783C38.6038 68.1169 38.6149 68.1588 38.6178 68.2016C38.6178 68.6321 38.6404 69.0596 38.6108 69.4917C38.571 70.0549 38.2059 70.3731 37.6459 70.3848C37.1069 70.3957 36.7099 70.065 36.6506 69.5174C36.634 69.2598 36.6321 69.0015 36.6452 68.7437H36.6397Z" fill="#737070"/>
<path d="M29.821 69.4559C29.821 69.7149 29.8256 69.973 29.821 70.2312C29.821 70.3194 29.743 70.3451 29.665 70.3357C29.5269 70.3194 29.4458 70.2531 29.4255 70.129C29.4139 70.0438 29.409 69.9577 29.4107 69.8716C29.4107 69.6135 29.4107 69.3545 29.4107 69.0956C29.4131 68.9951 29.4105 68.8946 29.4029 68.7945C29.3569 68.3569 28.9388 68.1323 28.5449 68.3335C28.4737 68.369 28.4125 68.4217 28.3667 68.4868C28.321 68.5519 28.2921 68.6273 28.2828 68.7063C28.266 68.8356 28.2587 68.966 28.261 69.0963C28.261 69.4411 28.261 69.7858 28.261 70.1306C28.261 70.2156 28.261 70.3108 28.1525 70.3357C28.096 70.3481 28.0369 70.3401 27.9856 70.3131C27.9344 70.2861 27.8943 70.242 27.8725 70.1883C27.8541 70.1343 27.8441 70.0777 27.8429 70.0206C27.8429 69.6306 27.8288 69.2406 27.8429 68.8569C27.8842 67.9388 28.7313 67.7267 29.2913 67.9505C29.6377 68.0886 29.7874 68.378 29.8186 68.7305C29.8397 68.9723 29.8225 69.218 29.8225 69.4621L29.821 69.4559Z" fill="#747373"/>
<path d="M39.234 69.7625C39.399 69.8529 39.5745 69.9226 39.7566 69.9699C39.9252 70.0094 40.1018 69.9975 40.2636 69.9356C40.3184 69.9173 40.366 69.8824 40.4 69.8357C40.434 69.789 40.4526 69.7329 40.4531 69.6751C40.4631 69.6176 40.453 69.5585 40.4246 69.5075C40.3962 69.4566 40.3512 69.4169 40.2971 69.3951C40.1513 69.3381 39.9992 69.296 39.8494 69.2484C39.724 69.2188 39.601 69.1799 39.4813 69.1322C39.2051 68.9981 39.11 68.7422 39.2067 68.4458C39.2407 68.3357 39.3003 68.2352 39.3806 68.1525C39.6661 67.8616 40.2246 67.7774 40.5811 67.9778C40.6545 68.0222 40.7196 68.0789 40.7737 68.1455C40.8517 68.236 40.8564 68.3873 40.7995 68.4201C40.7215 68.4661 40.6653 68.4029 40.6052 68.3748C40.4077 68.2854 40.1887 68.2546 39.9742 68.2859C39.8732 68.2966 39.778 68.3386 39.702 68.406C39.6716 68.4303 39.6478 68.4618 39.6326 68.4976C39.6175 68.5334 39.6115 68.5725 39.6152 68.6112C39.6189 68.6499 39.6322 68.6871 39.6539 68.7193C39.6756 68.7516 39.705 68.778 39.7394 68.796C39.8308 68.8364 39.9252 68.8695 40.0218 68.8951C40.1848 68.9481 40.3533 68.9887 40.5116 69.0511C41.035 69.264 40.9469 69.9153 40.6559 70.1587C40.365 70.4021 39.7621 70.4567 39.4368 70.2476C39.3881 70.2174 39.3448 70.1792 39.3089 70.1345C39.2739 70.0883 39.2492 70.0351 39.2363 69.9785C39.2291 69.9067 39.2283 69.8344 39.234 69.7625Z" fill="#737070"/>
<path d="M16.2724 67.445C16.2507 67.5703 16.204 67.6899 16.1351 67.7968C15.9494 68.152 15.7344 68.4912 15.4924 68.8108C15.3663 68.9673 15.3041 69.1657 15.3184 69.3661C15.3294 69.6243 15.3184 69.8825 15.3184 70.1415C15.3184 70.228 15.3099 70.3209 15.1944 70.3326C15.1372 70.3425 15.0784 70.3324 15.0278 70.304C14.9772 70.2756 14.938 70.2306 14.9167 70.1766C14.9001 70.1071 14.8919 70.0358 14.8926 69.9644C14.8926 69.7491 14.8832 69.5338 14.8926 69.3186C14.8995 69.1467 14.8465 68.9777 14.7428 68.8404C14.4615 68.4415 14.2221 68.0147 14.0283 67.5667C13.9964 67.5027 13.972 67.4351 13.9558 67.3654C13.9529 67.3514 13.9533 67.337 13.9569 67.3232C13.9604 67.3093 13.9671 67.2965 13.9763 67.2856C13.9855 67.2747 13.9971 67.2661 14.0102 67.2603C14.0232 67.2545 14.0374 67.2518 14.0517 67.2523C14.1233 67.2406 14.1968 67.2518 14.2615 67.2845C14.3263 67.3171 14.379 67.3695 14.4121 67.4341C14.4901 67.5721 14.5462 67.7196 14.6235 67.8568C14.7561 68.0947 14.8949 68.3295 15.0376 68.5588C15.0977 68.6563 15.1687 68.6517 15.2373 68.5534C15.4472 68.2447 15.6329 67.9203 15.7927 67.5831C15.8334 67.4916 15.8787 67.4023 15.9284 67.3155C15.9838 67.2289 16.0743 67.2375 16.1624 67.2656C16.1985 67.2785 16.229 67.3033 16.249 67.3359C16.269 67.3685 16.2773 67.407 16.2724 67.445Z" fill="#747373"/>
<path d="M41.8665 67.4645C41.9609 67.6002 41.8151 67.8155 41.9835 67.895C42.1029 67.952 42.2643 67.9184 42.4071 67.9247C42.45 67.9247 42.4929 67.9247 42.5358 67.9247C42.6231 67.9247 42.7199 67.9247 42.723 68.0463C42.73 68.0977 42.7181 68.1498 42.6893 68.1929C42.6606 68.236 42.6171 68.2671 42.567 68.2803C42.4693 68.3014 42.3703 68.3155 42.2706 68.3225C42.1996 68.3295 42.1271 68.3225 42.0553 68.3318C41.9835 68.3412 41.9165 68.3794 41.9157 68.4621C41.9157 68.8521 41.9016 69.2374 41.9211 69.6235C41.9321 69.8575 42.0857 69.9792 42.3213 69.987C42.3926 69.9842 42.4637 69.9771 42.5342 69.9659C42.6567 69.955 42.7144 70.0283 42.6832 70.1422C42.6708 70.1911 42.6459 70.2358 42.6108 70.2721C42.5758 70.3084 42.5319 70.3348 42.4835 70.3489C42.0249 70.5049 41.5967 70.2615 41.5038 69.7904C41.4908 69.7199 41.4842 69.6484 41.4843 69.5767C41.4843 69.0603 41.4843 68.544 41.4843 68.0268C41.4736 67.8679 41.521 67.7104 41.6177 67.5838C41.6817 67.5058 41.7534 67.4309 41.8665 67.4645Z" fill="#737070"/>
<path d="M52.384 69.399C52.384 69.2126 52.3754 69.0261 52.384 68.8405C52.3896 68.6533 52.4381 68.47 52.526 68.3046C52.61 68.1524 52.7444 68.0342 52.9061 67.9704C53.0679 67.9067 53.2468 67.9013 53.4121 67.9552C53.4817 67.9755 53.5418 68.0198 53.5819 68.0801C53.622 68.1405 53.6395 68.2131 53.6313 68.2851C53.6313 68.3413 53.6063 68.3975 53.5252 68.3803C53.4422 68.3583 53.3578 68.3427 53.2725 68.3335C53.0205 68.3187 52.8926 68.4115 52.8442 68.6541C52.8195 68.7949 52.8073 68.9377 52.8076 69.0807C52.8029 69.4395 52.8076 69.7976 52.8076 70.1564C52.8076 70.2281 52.8013 70.303 52.721 70.3342C52.6723 70.3467 52.6209 70.3449 52.5732 70.329C52.5255 70.3131 52.4833 70.2838 52.4519 70.2445C52.4034 70.1727 52.3784 70.0877 52.3801 70.0011C52.3801 69.7999 52.3801 69.5994 52.3801 69.399H52.384Z" fill="#747373"/>
<path d="M21.9742 69.3919C21.9742 69.2055 21.9742 69.0191 21.9742 68.8334C21.9749 68.6312 22.0328 68.4333 22.1411 68.2625C22.2252 68.1272 22.3511 68.0231 22.4998 67.966C22.6485 67.9088 22.8117 67.9017 22.9648 67.9458C23.0143 67.9552 23.0609 67.9765 23.1004 68.0079C23.14 68.0393 23.1713 68.0798 23.1917 68.126C23.2101 68.157 23.2213 68.1917 23.2246 68.2276C23.2278 68.2635 23.223 68.2997 23.2105 68.3335C23.166 68.4208 23.0896 68.3732 23.024 68.3584C22.9823 68.3473 22.9398 68.3392 22.8969 68.3342C22.5888 68.3108 22.4437 68.4255 22.4094 68.7391C22.3915 68.9099 22.3985 69.083 22.3969 69.2546C22.3969 69.5666 22.3969 69.8849 22.3891 70.2C22.3891 70.3115 22.301 70.363 22.1731 70.3295C22.1161 70.3176 22.0652 70.2861 22.0291 70.2405C21.993 70.1949 21.9741 70.138 21.9757 70.0799C21.9687 69.8506 21.9757 69.6212 21.9757 69.3919H21.9742Z" fill="#747373"/>
<path d="M39.7191 18.6288C39.6856 15.6351 42.2261 13.2717 45.0621 13.2772C47.8062 13.2826 50.3599 15.4947 50.3537 18.621C50.3474 21.7183 47.7945 23.946 45.0356 23.946C42.1496 23.946 39.6872 21.5662 39.7191 18.6288Z" fill="#FFFEFE"/>
<path d="M25.3758 57.4977C24.9257 57.4977 24.524 57.4977 24.1223 57.4977C23.907 57.4977 23.8828 57.4626 23.9031 57.2372C23.9359 56.8651 23.9811 56.4946 24.1317 56.1452C24.4437 55.4229 24.9546 54.8972 25.7307 54.699C26.3744 54.5265 27.058 54.5816 27.6658 54.855C28.3468 55.1577 28.612 55.745 28.6018 56.415C28.6069 56.5818 28.56 56.746 28.4677 56.8849C28.3753 57.0238 28.242 57.1306 28.0863 57.1904C27.8072 57.3017 27.5144 57.3749 27.2158 57.408C26.5887 57.5 25.9576 57.4914 25.3758 57.4977Z" fill="#FCFCFC"/>
<path d="M55.4338 69.3584C55.4338 68.8904 55.4136 68.9084 55.8761 68.9154C56.0474 68.9161 56.2184 68.9318 56.387 68.9622C56.6265 69.0082 56.7294 69.1377 56.7489 69.3732C56.7723 69.6587 56.6779 69.8358 56.4455 69.9255C56.2003 70.0087 55.9368 70.0225 55.6842 69.9653C55.5282 69.9364 55.4557 69.8358 55.437 69.6587C55.4354 69.6301 55.4354 69.6015 55.437 69.5729C55.4331 69.498 55.4338 69.4302 55.4338 69.3584Z" fill="#F7F8F8"/>
<path d="M55.9159 68.5752C55.3925 68.5627 55.4291 68.5994 55.4291 68.0768C55.4291 67.6454 55.4557 67.6189 55.8815 67.6088C56.0664 67.5935 56.2524 67.6171 56.4275 67.6782C56.6163 67.7562 56.699 67.8958 56.6912 68.1212C56.6826 68.3342 56.5773 68.4878 56.3792 68.5292C56.2257 68.553 56.071 68.5683 55.9159 68.5752Z" fill="#F7F8F8"/>
<path d="M24.9218 68.7617C24.9158 68.5893 24.9423 68.4173 24.9998 68.2547C25.1293 67.8257 25.4498 67.5956 25.8968 67.5995C26.3702 67.6042 26.6861 67.8467 26.8047 68.3015C26.8984 68.633 26.8984 68.984 26.8047 69.3155C26.6791 69.746 26.3562 69.9964 25.9272 69.9988C25.4678 69.9988 25.1277 69.7531 25.0052 69.3124C24.9455 69.1351 24.9173 68.9487 24.9218 68.7617Z" fill="#F7F8F8"/>
<path d="M31.4043 68.973C31.2015 68.973 31.1009 68.9769 31.0011 68.973C30.8529 68.9668 30.8084 68.895 30.849 68.7453C30.9707 68.2952 31.3848 68.1876 31.7288 68.303C31.8046 68.3277 31.8713 68.3744 31.9204 68.4372C31.9694 68.5 31.9986 68.5761 32.0042 68.6556C32.0237 68.8053 31.962 68.9184 31.8146 68.941C31.6461 68.966 31.473 68.9683 31.4043 68.973Z" fill="#F7F8F8"/>
<path d="M50.2257 68.952C50.2374 68.4364 50.6157 68.1463 51.0767 68.2906C51.1383 68.3094 51.1952 68.3409 51.2438 68.3831C51.2925 68.4253 51.3317 68.4772 51.359 68.5355C51.4604 68.7414 51.3824 68.9193 51.1594 68.9473C50.8497 68.9894 50.5358 68.991 50.2257 68.952Z" fill="#F7F8F8"/>
<path d="M58.787 69.2173C58.8299 69.2173 58.8728 69.2173 58.9149 69.2173C59.0576 69.2251 59.0958 69.261 59.1036 69.3897C59.1036 69.4326 59.1036 69.4755 59.1036 69.5176C59.1036 69.7142 59.0584 69.8904 58.8431 69.9591C58.6091 70.0324 58.3907 70.0168 58.2027 69.8499C58.1675 69.8146 58.1405 69.7719 58.1237 69.725C58.1069 69.6781 58.1006 69.628 58.1054 69.5784C58.1102 69.5287 58.1258 69.4808 58.1513 69.4379C58.1768 69.395 58.2114 69.3583 58.2527 69.3304C58.3821 69.2438 58.5054 69.2173 58.787 69.2173Z" fill="#F7F8F8"/>
<path d="M18.3487 69.1525C18.3535 69.2889 18.3345 69.4251 18.2926 69.555C18.2107 69.789 18.0586 69.9512 17.8058 69.9832C17.6921 70.0021 17.5753 69.9904 17.4676 69.9493C17.3599 69.9081 17.265 69.8391 17.1928 69.7492C16.9424 69.4465 16.9206 68.8607 17.1444 68.5355C17.4002 68.1619 18.0024 68.1954 18.227 68.5979C18.3193 68.7675 18.3615 68.9598 18.3487 69.1525Z" fill="#F7F8F8"/>
<path d="M44.8359 69.1649C44.8385 69.3008 44.8165 69.4361 44.7712 69.5642C44.5879 70.1063 43.9584 70.0946 43.6675 69.7389C43.4194 69.4347 43.4038 68.8482 43.6332 68.5245C43.8851 68.1688 44.4568 68.193 44.6924 68.5682C44.7946 68.7499 44.8443 68.9565 44.8359 69.1649Z" fill="#F7F8F8"/>
</svg>
