<svg width="128" height="30" viewBox="0 0 128 30" fill="none" xmlns="http://www.w3.org/2000/svg">
<g clip-path="url(#clip0_3514_4807)">
<path d="M67.5 22.5V13.463C67.5096 12.2017 67.9224 10.9766 68.6781 9.96668C69.4338 8.95678 70.4927 8.21508 71.7 7.85002C73.0852 7.51051 74.5193 7.41675 75.937 7.57302V11.114C75.737 11.114 74.356 11.083 74.159 11.114C72.359 11.236 71.305 12.256 71.305 13.859V22.5H67.5Z" fill="#4300C2"/>
<path fill-rule="evenodd" clip-rule="evenodd" d="M106.032 8.08998C104.899 7.60702 103.664 7.41155 102.437 7.52093C101.21 7.63031 100.029 8.04115 98.9993 8.71694C97.9695 9.39272 97.1226 10.3125 96.5339 11.3945C95.9452 12.4765 95.633 13.6872 95.625 14.919C95.6244 15.9162 95.805 16.9053 96.158 17.838C96.6235 18.9813 97.3637 19.9922 98.3132 20.7812C99.2626 21.5702 100.392 22.1129 101.601 22.3612C102.81 22.6096 104.062 22.556 105.246 22.2051C106.429 21.8543 107.508 21.217 108.386 20.3497C109.265 19.4824 109.916 18.4119 110.282 17.233C110.648 16.0541 110.718 14.803 110.485 13.5907C110.252 12.3784 109.724 11.2422 108.947 10.2828C108.171 9.32328 107.169 8.57012 106.032 8.08998ZM103.121 19.246C102.559 19.2469 102.005 19.1239 101.496 18.8857C100.987 18.6475 100.538 18.3 100.179 17.868H100.189C99.4551 17.0313 99.0759 15.9417 99.1319 14.8302C99.1879 13.7186 99.6747 12.6726 100.489 11.914C100.95 11.4684 101.514 11.1447 102.131 10.9721C102.748 10.7995 103.399 10.7836 104.024 10.9256C104.649 11.0677 105.228 11.3633 105.71 11.7857C106.192 12.2082 106.561 12.7441 106.784 13.345C107.103 14.0902 107.205 14.9104 107.078 15.7111C106.951 16.5117 106.6 17.2601 106.066 17.87C105.707 18.3023 105.257 18.6498 104.748 18.8879C104.238 19.1259 103.683 19.2485 103.121 19.247V19.246Z" fill="#4300C2"/>
<path d="M113.438 22.46V14.16C113.403 12.8102 113.801 11.4847 114.572 10.3766C115.344 9.26857 116.449 8.43589 117.727 7.99997C122.947 6.21297 127.5 9.42897 127.5 14.161V22.5H123.976V14.222C123.998 13.7636 123.923 13.3059 123.756 12.8783C123.59 12.4507 123.335 12.063 123.009 11.7401C122.683 11.4173 122.293 11.1666 121.864 11.0043C121.435 10.8419 120.976 10.7717 120.518 10.798C120.054 10.7673 119.59 10.8338 119.153 10.9932C118.717 11.1527 118.319 11.4016 117.984 11.724C117.65 12.0464 117.386 12.4351 117.211 12.8653C117.035 13.2955 116.951 13.7576 116.965 14.222V22.46H113.438Z" fill="#4300C2"/>
<path d="M93.739 14.647V14.519C93.6827 13.6386 93.503 12.7704 93.205 11.94C92.6948 10.5606 91.7635 9.3768 90.5431 8.55622C89.3226 7.73563 87.8749 7.31993 86.405 7.368H83.245V11.128H86.345C86.8157 11.1 87.2874 11.1657 87.7325 11.3215C88.1776 11.4773 88.5873 11.7201 88.9378 12.0356C89.2883 12.3511 89.5726 12.7331 89.7741 13.1594C89.9757 13.5858 90.0906 14.0479 90.112 14.519H90.1C90.1 14.6 90.111 14.681 90.111 14.762C90.1124 15.3267 90.0005 15.8859 89.7819 16.4066C89.5632 16.9272 89.2422 17.3987 88.838 17.793C88.4303 18.1906 87.9483 18.5038 87.4195 18.7149C86.8906 18.9259 86.3253 19.0306 85.756 19.023C85.1636 19.0078 84.5803 18.8741 84.0404 18.6297C83.5006 18.3854 83.0151 18.0354 82.6128 17.6004C82.2104 17.1654 81.8992 16.6542 81.6976 16.097C81.496 15.5397 81.4081 14.9478 81.439 14.356V0H77.813V14.456C77.813 19.336 81.047 22.53 85.776 22.5C87.7812 22.5824 89.7386 21.8739 91.2267 20.5273C92.7147 19.1806 93.6144 17.3035 93.732 15.3H93.747C93.754 15.087 93.75 14.868 93.739 14.647Z" fill="#4300C2"/>
<path d="M48.75 15.285V15.412C48.8056 16.2853 48.985 17.1462 49.283 17.969C49.7995 19.3424 50.7346 20.5187 51.9561 21.3318C53.1776 22.1448 54.6236 22.5535 56.09 22.5H59.268V18.773H56.16C55.6911 18.803 55.221 18.7396 54.7768 18.5864C54.3327 18.4332 53.9234 18.1933 53.5727 17.8806C53.2221 17.5679 52.9371 17.1886 52.7342 16.7649C52.5313 16.3411 52.4147 15.8812 52.391 15.412H52.4C52.4018 15.3316 52.3984 15.2511 52.39 15.171C52.3895 14.611 52.5021 14.0566 52.721 13.5411C52.9399 13.0256 53.2607 12.5596 53.664 12.171C54.4915 11.374 55.6002 10.9359 56.749 10.952C57.3391 10.9638 57.9209 11.0937 58.46 11.3342C58.9991 11.5747 59.4845 11.9207 59.8875 12.352C60.2905 12.7833 60.603 13.291 60.8064 13.8451C61.0099 14.3992 61.1002 14.9884 61.072 15.578V22.45H64.684V15.474C64.684 10.636 61.444 7.47402 56.71 7.50002C54.7135 7.41176 52.7619 8.10898 51.2732 9.44228C49.7846 10.7756 48.8774 12.6389 48.746 14.633L48.75 15.285Z" fill="#4300C2"/>
<path d="M46.873 18.741H42.036C41.5335 18.7675 41.0311 18.6872 40.5619 18.5055C40.0926 18.3237 39.6672 18.0446 39.3137 17.6866C38.9601 17.3285 38.6865 16.8996 38.5107 16.428C38.335 15.9565 38.2611 15.4531 38.294 14.951C38.2704 14.4553 38.3514 13.9601 38.5317 13.4977C38.712 13.0353 38.9875 12.616 39.3404 12.2671C39.6934 11.9181 40.1157 11.6473 40.5801 11.4723C41.0445 11.2972 41.5406 11.2218 42.036 11.251H46.875V7.5H41.975C36.8 7.5 33.288 12.36 35.239 17.932C35.7361 19.3058 36.6548 20.4873 37.8636 21.3077C39.0725 22.1281 40.5098 22.5454 41.97 22.5H46.87L46.873 18.741Z" fill="#4300C2"/>
<path d="M26.248 7.5H17.813L26.251 22.5V7.5H26.248Z" fill="#9B7DD4"/>
<path d="M26.25 7.5L13.125 0L17.5 7.5H26.25Z" fill="#4300C2"/>
<path d="M17.813 7.5L13.36 0L0 7.5H17.813Z" fill="#9B7DD4"/>
<path d="M0 22.5H8.438L0 7.5V22.5Z" fill="#9B7DD4"/>
<path d="M0 22.5L13.125 30L8.751 22.5H0Z" fill="#4300C2"/>
<path d="M8.43799 22.5L12.892 30L26.25 22.5H8.43799Z" fill="#9B7DD4"/>
</g>
<defs>
<clipPath id="clip0_3514_4807">
<rect width="127.5" height="30" fill="white"/>
</clipPath>
</defs>
</svg>
