<svg width="80" height="80" viewBox="0 0 80 80" fill="none" xmlns="http://www.w3.org/2000/svg">
<path d="M14.2 33.8233C13.2832 40.8419 12.7368 47.9039 12.5633 54.98C22.1593 58.9883 31.3473 63.911 40 69.68C48.6538 63.9109 57.8428 58.9882 67.44 54.98C67.2664 47.9039 66.72 40.8419 65.8033 33.8233M65.8033 33.8233C68.72 32.8433 71.6767 31.9366 74.6633 31.11C63.7852 23.4841 52.1733 16.9629 40 11.6433C27.8266 16.9641 16.2147 23.4864 5.33667 31.1133C8.31424 31.9354 11.2687 32.8391 14.1967 33.8233C23.0921 36.814 31.723 40.5402 40 44.9633C48.2758 40.5402 56.909 36.814 65.8033 33.8233ZM22.5 50C23.163 50 23.7989 49.7366 24.2678 49.2677C24.7366 48.7989 25 48.163 25 47.5C25 46.8369 24.7366 46.2011 24.2678 45.7322C23.7989 45.2634 23.163 45 22.5 45C21.837 45 21.2011 45.2634 20.7322 45.7322C20.2634 46.2011 20 46.8369 20 47.5C20 48.163 20.2634 48.7989 20.7322 49.2677C21.2011 49.7366 21.837 50 22.5 50ZM22.5 50V37.75C28.1558 34.2344 33.9977 31.0275 40 28.1433M16.6433 66.6433C18.5032 64.788 19.9781 62.5834 20.9832 60.1562C21.9883 57.729 22.5038 55.127 22.5 52.5V47.5" stroke="black" stroke-width="1.5" stroke-linecap="round" stroke-linejoin="round"/>
</svg>
