<svg width="128" height="30" viewBox="0 0 128 30" fill="none" xmlns="http://www.w3.org/2000/svg">
<g clip-path="url(#clip0_6581_1340)">
<path d="M0.967773 3.00833V24.141H7.27714C14.1601 24.141 18.5814 20.1831 18.5814 13.5865C18.5814 6.9663 14.1601 3.00833 7.27714 3.00833H0.967773ZM7.27714 7.4846C10.7903 7.4846 13.1324 9.53426 13.1324 13.5865C13.1324 17.6151 10.7903 19.6883 7.27714 19.6883H6.20168V7.4846H7.27714ZM34.7134 17.5444C34.7373 17.1675 34.7373 16.8377 34.7373 16.5314C34.7373 11.1363 31.965 7.90867 26.8505 7.90867C22.1185 7.90867 18.9399 11.6075 18.9399 16.2722C18.9399 20.937 22.1902 24.5416 27.4958 24.5416C31.6543 24.5416 33.853 21.9736 34.331 21.0312L30.9612 18.4632C30.6505 18.9344 29.5033 20.1595 27.5914 20.1595C25.6795 20.1595 24.2933 18.958 24.1738 17.5444H34.7134ZM26.9461 11.9844C28.5235 11.9844 29.4794 13.0682 29.5511 14.3404H24.3411C24.4606 13.2095 25.2493 11.9844 26.9461 11.9844ZM43.8906 20.1124C41.5485 20.1124 39.9473 18.5339 39.9473 16.2016C39.9473 14.1048 41.2856 12.4321 43.7233 12.4321C44.9183 12.4321 46.0415 12.8797 46.9258 13.61L48.312 9.34579C47.1887 8.56833 45.6114 7.90867 43.5321 7.90867C38.5611 7.90867 34.8328 11.3719 34.8328 16.2487C34.8328 21.1019 38.4416 24.5416 43.556 24.5416C45.5875 24.5416 47.2126 23.8583 48.2881 23.128L46.9258 18.9816C46.2327 19.5705 45.0856 20.1124 43.8906 20.1124ZM48.3359 19.2171C48.3359 22.6804 51.156 24.5416 54.3106 24.5416C55.9597 24.5416 57.1307 24.0939 57.9433 23.2693L58.2301 24.141H62.7948V14.3404C62.7948 10.7122 61.3848 7.90867 55.8402 7.90867C53.1635 7.90867 50.9887 8.75681 49.2918 9.86409L51.1799 13.2566C52.4465 12.6441 53.8088 12.2436 55.2188 12.2436C56.8917 12.2436 57.6804 12.9975 57.6804 13.9634V14.5524C57.1068 14.2932 55.9836 13.9634 54.5735 13.9634C50.7736 13.9634 48.3359 16.0602 48.3359 19.2171ZM53.4503 19.0522C53.4503 18.0156 54.3584 17.356 55.6012 17.356C56.82 17.356 57.776 17.9685 57.776 19.0522C57.776 20.1124 56.8439 20.6778 55.6251 20.6778C54.4301 20.6778 53.4503 20.1124 53.4503 19.0522ZM75.4614 23.34C75.4614 25.2719 73.5733 25.696 71.6614 25.696C69.4866 25.696 67.6942 24.9421 67.2162 24.73L65.7344 28.5938C67.1684 29.3241 69.391 29.9366 71.6614 29.9366C76.4412 29.9366 80.5758 28.099 80.5758 22.2563V8.28562H75.796V9.53426C75.3419 9.01596 73.8123 7.90867 71.4463 7.90867C66.8338 7.90867 63.5835 11.3483 63.5835 16.2016C63.5835 21.1255 66.5231 24.5416 71.1834 24.5416C73.6211 24.5416 75.1268 23.34 75.4614 22.9395V23.34ZM75.6287 16.178C75.6287 18.6753 74.1708 20.1124 72.1633 20.1124C70.0841 20.1124 68.6979 18.5104 68.6979 16.178C68.6979 13.8221 70.0841 12.3378 72.1394 12.3378C74.3381 12.3378 75.6287 14.0577 75.6287 16.178ZM122.853 24.141H127.968V15.3534C127.968 12.1258 127.49 7.90867 122.447 7.90867C120.44 7.90867 119.029 8.9924 118.408 9.93477V8.28562H113.413V24.141H118.528V14.6938C118.528 13.4216 119.34 12.4321 120.75 12.4321C121.969 12.4321 122.853 13.2095 122.853 14.6938V24.141Z" fill="black"/>
<path fill-rule="evenodd" clip-rule="evenodd" d="M92.8598 7.10765C93.5529 7.10765 94.2459 7.17833 94.939 7.31969L94.1025 9.58138C93.7201 9.53426 93.3139 9.5107 92.9076 9.5107C91.8799 9.5107 90.9 9.67562 89.968 10.0054L89.5856 7.6024C90.6133 7.27257 91.7126 7.10765 92.8598 7.10765ZM91.5692 22.1385C91.2107 21.526 90.9239 20.8899 90.7089 20.2538L93.1227 19.8297C93.2661 20.1831 93.4334 20.5365 93.6484 20.8663C94.1503 21.7615 94.7956 22.5154 95.5365 23.128L93.6484 24.6593C92.8359 23.9526 92.1428 23.1044 91.5692 22.1385ZM111.238 18.157C111.167 18.6753 111.071 19.17 110.951 19.6648L109.9 19.2171C110.019 18.7931 110.139 18.369 110.211 17.9449L111.238 18.157ZM109.804 22.2799C109.494 22.8217 109.111 23.3165 108.681 23.7876L107.677 22.7275C108.06 22.3741 108.394 21.9736 108.705 21.5495L109.804 22.2799ZM106.841 25.4132C106.578 25.6017 106.315 25.7902 106.028 25.9551C105.526 26.2378 105.001 26.4734 104.475 26.6619L103.997 24.8949C104.618 24.7065 105.263 24.4473 105.861 24.0939C105.956 24.0468 106.028 23.9997 106.124 23.9526L106.841 25.4132ZM102.563 27.1802C101.463 27.3687 100.34 27.3922 99.2408 27.2273L99.9339 25.1541C100.818 25.319 101.75 25.319 102.682 25.2012L102.563 27.1802ZM98.0459 26.9917L98.9541 24.9421C97.9264 24.6593 96.9465 24.1882 96.0862 23.5521L94.4371 25.2954C95.5126 26.0965 96.7553 26.6619 98.0459 26.9917ZM86.5026 25.8844C86.0963 25.5782 85.69 25.2483 85.3315 24.8714L86.2397 24.2117C86.5504 24.5415 86.8611 24.8478 87.2196 25.1305L86.5026 25.8844ZM83.5869 22.6097C83.3001 22.0678 83.0372 21.4788 82.8221 20.8899L84.2561 20.56C84.3995 21.0548 84.5668 21.5495 84.7819 22.0207L83.5869 22.6097ZM82.3203 18.5104C82.2725 18.1805 82.2725 17.8743 82.2725 17.5444C82.2725 16.9554 82.3203 16.4136 82.4159 15.8482L84.2083 16.3193C84.041 16.9554 83.9693 17.6387 83.9693 18.3219V18.6046L82.3203 18.5104ZM82.9177 13.9634C83.3001 12.9268 83.8498 11.9609 84.519 11.1127L86.0007 12.7148C85.4271 13.4215 84.9492 14.199 84.5907 15.0707L82.9177 13.9634ZM85.3315 10.1939L86.6699 12.008C87.4347 11.2777 88.3428 10.6651 89.3227 10.241L88.6296 7.97935C87.3869 8.49765 86.2636 9.25155 85.3315 10.1939ZM105.407 15.7068C105.048 16.3193 104.642 16.8848 104.188 17.3795L102.611 15.5419C102.85 15.2356 103.065 14.9058 103.256 14.576C103.782 13.6807 104.116 12.7619 104.307 11.8195L106.602 12.6677C106.363 13.7278 105.98 14.7409 105.407 15.7068ZM92.095 0.911551C92.573 0.699517 93.051 0.534602 93.5529 0.416805L93.6723 1.52409C93.2422 1.61833 92.812 1.73613 92.4057 1.90104L92.095 0.911551ZM96.4207 0.0634155C97.0421 0.0634155 97.6874 0.134093 98.3088 0.25189L97.8786 1.64189C97.3767 1.50053 96.8509 1.42986 96.3251 1.38274L96.4207 0.0634155ZM100.651 1.00579C100.962 1.14714 101.248 1.2885 101.535 1.45342C102.037 1.73613 102.515 2.06596 102.945 2.41935L101.631 3.71511C101.153 3.26748 100.603 2.86697 99.9817 2.51358C99.91 2.46647 99.8144 2.41935 99.7427 2.37223L100.651 1.00579ZM104.355 3.78579C105.072 4.63392 105.646 5.59986 106.052 6.58935L103.901 7.06053C103.567 6.2124 103.113 5.41138 102.539 4.68104L104.355 3.78579ZM106.458 7.74375C106.793 9.01596 106.912 10.3588 106.745 11.6782L104.403 11.1363C104.523 10.0761 104.451 9.01596 104.188 8.00291L106.458 7.74375Z" fill="black"/>
<path fill-rule="evenodd" clip-rule="evenodd" d="M87.8167 14.2461C88.1752 13.6571 88.5815 13.0917 89.0356 12.5734L90.6129 14.411C90.3739 14.7173 90.1589 15.0471 89.9438 15.4005C89.4419 16.2722 89.0834 17.2146 88.9161 18.157L86.6218 17.2853C86.8608 16.2487 87.2432 15.212 87.8167 14.2461ZM101.654 7.83798C102.013 8.45052 102.276 9.06307 102.515 9.72273L100.101 10.1468C99.9575 9.79341 99.7663 9.44002 99.5751 9.08663C99.0493 8.21493 98.4041 7.46103 97.6632 6.82493L99.5751 5.31714C100.364 6.02391 101.081 6.87205 101.654 7.83798ZM81.9854 11.7959C82.0331 11.3012 82.1287 10.8065 82.2721 10.3117L83.3237 10.7593C83.1803 11.1598 83.0847 11.5839 83.013 12.0315L81.9854 11.7959ZM83.4193 7.67307C83.73 7.15476 84.1124 6.63646 84.5187 6.16527L85.5224 7.22544C85.1639 7.60239 84.8054 8.0029 84.5187 8.40341L83.4193 7.67307ZM86.3589 4.53968C86.6218 4.3512 86.9086 4.18629 87.1954 4.02137C87.6972 3.73866 88.1991 3.47951 88.7249 3.29103L89.2268 5.05798C88.5815 5.24646 87.9601 5.50561 87.3388 5.859C87.2671 5.90612 87.1715 5.95324 87.0998 6.00036L86.3589 4.53968ZM90.6607 2.77273C91.7601 2.58425 92.8834 2.56069 93.9827 2.72561L93.2896 4.79883C92.3815 4.65747 91.4494 4.63391 90.5412 4.77527L90.6607 2.77273ZM95.1777 2.9612L94.2695 5.01086C95.2972 5.29358 96.2531 5.76476 97.1374 6.40086L98.7864 4.65747C97.6871 3.88002 96.4682 3.29103 95.1777 2.9612ZM100.364 22.8453C99.6468 22.8453 98.9537 22.7746 98.2846 22.6568L99.121 20.3715C99.5034 20.4187 99.9097 20.4658 100.292 20.4658C101.344 20.4658 102.324 20.2773 103.256 19.971L103.614 22.3505C102.586 22.6804 101.511 22.8453 100.364 22.8453ZM106.721 4.09205C107.127 4.39832 107.51 4.72815 107.868 5.08154L106.96 5.76476C106.673 5.43493 106.339 5.12866 106.004 4.84595L106.721 4.09205ZM109.613 7.3668C109.923 7.90866 110.186 8.47408 110.401 9.06307L108.967 9.3929C108.824 8.89815 108.633 8.40341 108.418 7.93222L109.613 7.3668ZM110.903 11.4661C110.927 11.7724 110.951 12.1022 110.951 12.432C110.951 12.9975 110.903 13.5629 110.808 14.1048L109.015 13.6336C109.159 12.9975 109.254 12.3378 109.254 11.631C109.254 11.5368 109.254 11.4426 109.23 11.3483L110.903 11.4661ZM110.306 16.0131C109.923 17.0497 109.374 18.0156 108.705 18.8637L107.199 17.2382C107.796 16.5314 108.274 15.7539 108.609 14.9058L110.306 16.0131ZM107.868 19.759L106.53 17.9685C105.765 18.6988 104.881 19.2878 103.877 19.7119L104.594 21.9971C105.837 21.4553 106.936 20.7014 107.868 19.759ZM101.129 29.0649C100.651 29.2534 100.173 29.4183 99.6707 29.5597L99.5273 28.4288C99.9575 28.3582 100.388 28.2168 100.818 28.0754L101.129 29.0649ZM96.8028 29.8895C96.1575 29.8895 95.5362 29.8188 94.9148 29.701L95.345 28.311C95.8468 28.4524 96.3726 28.5466 96.8745 28.5937L96.8028 29.8895ZM92.5488 28.9471C92.262 28.8058 91.9752 28.6644 91.6884 28.4995C91.1865 28.2168 90.7085 27.887 90.2783 27.5336L91.5689 26.2378C92.0708 26.6854 92.6205 27.1095 93.2179 27.4393C93.3135 27.4865 93.3852 27.5336 93.4808 27.5807L92.5488 28.9471ZM88.8683 26.1671C88.1274 25.319 87.5777 24.3766 87.1476 23.3636L89.3224 22.8924C89.6331 23.7405 90.0872 24.5415 90.6846 25.2719L88.8683 26.1671ZM86.7652 22.2092C86.4067 20.937 86.3111 19.6176 86.4545 18.2748L88.7966 18.8166C88.6771 19.8768 88.7727 20.937 89.0356 21.9736L86.7652 22.2092Z" fill="black"/>
</g>
<defs>
<clipPath id="clip0_6581_1340">
<rect width="127" height="29.8824" fill="white" transform="translate(0.967773 0.0588379)"/>
</clipPath>
</defs>
</svg>
