<svg width="126" height="30" viewBox="0 0 126 30" fill="none" xmlns="http://www.w3.org/2000/svg">
<g clip-path="url(#clip0_33_16265)">
<path d="M0.407837 3.00928V24.1403H6.62701C13.4116 24.1403 17.7697 20.1827 17.7697 13.5866C17.7697 6.96693 13.4116 3.00928 6.62701 3.00928H0.407837ZM6.62701 7.4852C10.09 7.4852 12.3986 9.53469 12.3986 13.5866C12.3986 17.6149 10.09 19.688 6.62701 19.688H5.56692V7.4852H6.62701ZM33.671 17.5442C33.6945 17.1673 33.6945 16.8375 33.6945 16.5313C33.6945 11.1366 30.9619 7.90923 25.9206 7.90923C21.2562 7.90923 18.123 11.6078 18.123 16.2721C18.123 20.9365 21.3269 24.5408 26.5566 24.5408C30.6556 24.5408 32.8229 21.973 33.2941 21.0307L29.9725 18.463C29.6662 18.9341 28.5354 20.1591 26.6509 20.1591C24.7663 20.1591 23.3999 18.9577 23.2821 17.5442H33.671ZM26.0148 11.9847C27.5696 11.9847 28.5119 13.0683 28.5826 14.3404H23.447C23.5648 13.2097 24.3422 11.9847 26.0148 11.9847ZM42.717 20.112C40.4084 20.112 38.8301 18.5336 38.8301 16.2015C38.8301 14.1048 40.1493 12.4323 42.5521 12.4323C43.73 12.4323 44.8372 12.8799 45.7088 13.6101L47.0752 9.34624C45.968 8.56884 44.4132 7.90923 42.3637 7.90923C37.4637 7.90923 33.7888 11.3722 33.7888 16.2486C33.7888 21.1014 37.3459 24.5408 42.3872 24.5408C44.3896 24.5408 45.9915 23.8576 47.0516 23.1274L45.7088 18.9812C45.0257 19.5702 43.8949 20.112 42.717 20.112ZM47.0987 19.2168C47.0987 22.6798 49.8785 24.5408 52.9881 24.5408C54.6136 24.5408 55.7679 24.0932 56.5688 23.2687L56.8515 24.1403H61.351V14.3404C61.351 10.7126 59.9611 7.90923 54.4958 7.90923C51.8573 7.90923 49.7136 8.7573 48.041 9.8645L49.9021 13.2568C51.1506 12.6443 52.4934 12.2438 53.8833 12.2438C55.5323 12.2438 56.3097 12.9976 56.3097 13.9635V14.5524C55.7443 14.2933 54.6371 13.9635 53.2472 13.9635C49.5016 13.9635 47.0987 16.0601 47.0987 19.2168ZM52.14 19.0519C52.14 18.0154 53.0352 17.3558 54.2602 17.3558C55.4616 17.3558 56.4039 17.9683 56.4039 19.0519C56.4039 20.112 55.4852 20.6774 54.2838 20.6774C53.1059 20.6774 52.14 20.112 52.14 19.0519ZM73.8364 23.3394C73.8364 25.2711 71.9754 25.6951 70.0908 25.6951C67.9471 25.6951 66.1803 24.9413 65.7091 24.7293L64.2486 28.5927C65.662 29.323 67.8529 29.9355 70.0908 29.9355C74.8023 29.9355 78.8777 28.098 78.8777 22.2557V8.28615H74.1663V9.53469C73.7187 9.01643 72.211 7.90923 69.8788 7.90923C65.3322 7.90923 62.1284 11.3486 62.1284 16.2015C62.1284 21.125 65.026 24.5408 69.6197 24.5408C72.0225 24.5408 73.5066 23.3394 73.8364 22.9389V23.3394ZM74.0014 16.1779C74.0014 18.675 72.5643 20.112 70.5855 20.112C68.536 20.112 67.1697 18.5101 67.1697 16.1779C67.1697 13.8222 68.536 12.338 70.562 12.338C72.7292 12.338 74.0014 14.0577 74.0014 16.1779ZM120.551 24.1403H125.592V15.3534C125.592 12.126 125.121 7.90923 120.15 7.90923C118.172 7.90923 116.782 8.99287 116.169 9.93517V8.28615H111.246V24.1403H116.287V14.6938C116.287 13.4217 117.088 12.4323 118.478 12.4323C119.679 12.4323 120.551 13.2097 120.551 14.6938V24.1403Z" fill="#101828"/>
<path fill-rule="evenodd" clip-rule="evenodd" d="M90.9862 7.10813C91.6694 7.10813 92.3526 7.17881 93.0357 7.32015L92.2112 9.58167C91.8343 9.53455 91.4338 9.511 91.0334 9.511C90.0204 9.511 89.0545 9.6759 88.1358 10.0057L87.7589 7.60284C88.7718 7.27304 89.8555 7.10813 90.9862 7.10813ZM89.7141 22.1378C89.3608 21.5253 89.0781 20.8893 88.8661 20.2532L91.2454 19.8292C91.3867 20.1825 91.5516 20.5359 91.7636 20.8657C92.2583 21.7609 92.8944 22.5147 93.6247 23.1272L91.7636 24.6584C90.9627 23.9517 90.2795 23.1037 89.7141 22.1378ZM109.102 18.1566C109.031 18.6748 108.937 19.1696 108.819 19.6643L107.783 19.2167C107.901 18.7926 108.018 18.3686 108.089 17.9446L109.102 18.1566ZM107.688 22.2791C107.382 22.821 107.005 23.3157 106.581 23.7868L105.592 22.7267C105.969 22.3734 106.299 21.9729 106.605 21.5489L107.688 22.2791ZM104.767 25.4123C104.508 25.6007 104.249 25.7892 103.966 25.9541C103.472 26.2368 102.953 26.4724 102.435 26.6608L101.964 24.894C102.577 24.7056 103.213 24.4464 103.802 24.0931C103.896 24.046 103.966 23.9988 104.061 23.9517L104.767 25.4123ZM100.551 27.1791C99.4669 27.3676 98.3597 27.3911 97.2761 27.2262L97.9593 25.1532C98.8309 25.3181 99.7496 25.3181 100.668 25.2003L100.551 27.1791ZM96.0982 26.9906L96.9934 24.9411C95.9804 24.6584 95.0146 24.1873 94.1665 23.5512L92.541 25.2945C93.6011 26.0955 94.8261 26.6608 96.0982 26.9906ZM84.72 25.8834C84.3195 25.5772 83.919 25.2474 83.5656 24.8705L84.4608 24.2109C84.7671 24.5407 85.0733 24.8469 85.4267 25.1296L84.72 25.8834ZM81.846 22.6089C81.5633 22.0671 81.3041 21.4782 81.0921 20.8893L82.5056 20.5594C82.6469 21.0542 82.8118 21.5489 83.0238 22.02L81.846 22.6089ZM80.5974 18.5099C80.5503 18.1801 80.5503 17.8739 80.5503 17.5441C80.5503 16.9552 80.5974 16.4133 80.6916 15.848L82.4584 16.3191C82.2935 16.9552 82.2229 17.6383 82.2229 18.3215V18.6042L80.5974 18.5099ZM81.1863 13.9634C81.5633 12.9268 82.1051 11.961 82.7647 11.1129L84.2253 12.7148C83.6599 13.4215 83.1887 14.1989 82.8354 15.0706L81.1863 13.9634ZM83.5656 10.1942L84.8849 12.0081C85.6387 11.2778 86.5339 10.6653 87.4997 10.2413L86.8166 7.97976C85.5916 8.49802 84.4844 9.25186 83.5656 10.1942ZM103.354 15.7066C103.001 16.3191 102.6 16.8845 102.152 17.3792L100.598 15.5417C100.833 15.2355 101.045 14.9057 101.234 14.5759C101.752 13.6807 102.082 12.7619 102.27 11.8196L104.532 12.6677C104.296 13.7278 103.919 14.7408 103.354 15.7066ZM90.2324 0.912522C90.7036 0.700505 91.1747 0.535602 91.6694 0.417815L91.7872 1.52502C91.3632 1.61925 90.9391 1.73703 90.5387 1.90194L90.2324 0.912522ZM94.4963 0.0644531C95.1088 0.0644531 95.7449 0.135126 96.3573 0.252913L95.9333 1.6428C95.4386 1.50146 94.9203 1.43079 94.4021 1.38367L94.4963 0.0644531ZM98.666 1.00675C98.9722 1.1481 99.2549 1.28944 99.5376 1.45434C100.032 1.73703 100.503 2.06684 100.927 2.4202L99.6318 3.71586C99.1607 3.26827 98.6189 2.86779 98.0064 2.51443C97.9357 2.46731 97.8415 2.4202 97.7708 2.37308L98.666 1.00675ZM102.317 3.78653C103.024 4.6346 103.589 5.60046 103.99 6.58987L101.87 7.06102C101.54 6.21295 101.092 5.412 100.527 4.68172L102.317 3.78653ZM104.39 7.74419C104.72 9.01629 104.838 10.3591 104.673 11.6783L102.365 11.1365C102.482 10.0764 102.412 9.01629 102.152 8.00332L104.39 7.74419Z" fill="#B8D344"/>
<path fill-rule="evenodd" clip-rule="evenodd" d="M86.0157 14.2461C86.369 13.6571 86.7695 13.0918 87.2171 12.5735L88.7719 14.411C88.5363 14.7172 88.3243 15.047 88.1123 15.4004C87.6176 16.272 87.2642 17.2143 87.0993 18.1566L84.8378 17.285C85.0734 16.2485 85.4503 15.2119 86.0157 14.2461ZM99.6554 7.83846C100.009 8.45095 100.268 9.06344 100.503 9.72305L98.1242 10.1471C97.9828 9.79373 97.7944 9.44036 97.6059 9.087C97.0877 8.21538 96.4516 7.46154 95.7213 6.82548L97.6059 5.31781C98.3833 6.02453 99.09 6.8726 99.6554 7.83846ZM80.2676 11.7961C80.3148 11.3014 80.409 10.8067 80.5503 10.312L81.5869 10.7596C81.4455 11.1601 81.3513 11.5841 81.2806 12.0317L80.2676 11.7961ZM81.6811 7.67355C81.9873 7.15529 82.3643 6.63703 82.7647 6.16588L83.7541 7.22596C83.4008 7.60288 83.0474 8.00336 82.7647 8.40383L81.6811 7.67355ZM84.5787 4.54041C84.8378 4.35195 85.1205 4.18705 85.4032 4.02215C85.8979 3.73946 86.3926 3.48033 86.9108 3.29187L87.4055 5.05868C86.7695 5.24713 86.157 5.50627 85.5445 5.85963C85.4738 5.90674 85.3796 5.95386 85.3089 6.00097L84.5787 4.54041ZM88.819 2.7736C89.9026 2.58514 91.0098 2.56158 92.0935 2.72649L91.4103 4.79954C90.5151 4.6582 89.5964 4.63464 88.7012 4.77599L88.819 2.7736ZM93.2714 2.96206L92.3762 5.01156C93.3891 5.29425 94.3314 5.7654 95.2031 6.40145L96.8285 4.6582C95.7449 3.8808 94.5435 3.29187 93.2714 2.96206ZM98.3833 22.8446C97.6766 22.8446 96.9934 22.7739 96.3338 22.6561L97.1583 20.371C97.5353 20.4181 97.9357 20.4653 98.3127 20.4653C99.3492 20.4653 100.315 20.2768 101.234 19.9706L101.587 22.3499C100.574 22.6797 99.5141 22.8446 98.3833 22.8446ZM104.65 4.09282C105.05 4.39907 105.427 4.72887 105.78 5.08223L104.885 5.7654C104.602 5.43559 104.273 5.12935 103.943 4.84666L104.65 4.09282ZM107.5 7.36731C107.806 7.90913 108.065 8.47451 108.277 9.06344L106.864 9.39325C106.723 8.89854 106.534 8.40383 106.322 7.93269L107.5 7.36731ZM108.772 11.4663C108.796 11.7726 108.819 12.1024 108.819 12.4322C108.819 12.9975 108.772 13.5629 108.678 14.1047L106.911 13.6336C107.052 12.9975 107.147 12.3379 107.147 11.6312C107.147 11.537 107.147 11.4427 107.123 11.3485L108.772 11.4663ZM108.183 16.0129C107.806 17.0494 107.264 18.0153 106.605 18.8633L105.121 17.2379C105.71 16.5312 106.181 15.7538 106.511 14.9057L108.183 16.0129ZM105.78 19.7585L104.461 17.9682C103.707 18.6984 102.836 19.2874 101.846 19.7114L102.553 21.9965C103.778 21.4547 104.862 20.7008 105.78 19.7585ZM99.1372 29.0637C98.666 29.2522 98.1949 29.4171 97.7002 29.5584L97.5588 28.4277C97.9828 28.357 98.4069 28.2157 98.8309 28.0743L99.1372 29.0637ZM94.8733 29.8882C94.2372 29.8882 93.6247 29.8176 93.0122 29.6998L93.4363 28.3099C93.931 28.4512 94.4492 28.5455 94.9439 28.5926L94.8733 29.8882ZM90.68 28.9459C90.3973 28.8046 90.1147 28.6633 89.832 28.4984C89.3373 28.2157 88.8661 27.8859 88.4421 27.5325L89.7142 26.2368C90.2089 26.6844 90.7507 27.1085 91.3396 27.4383C91.4339 27.4854 91.5045 27.5325 91.5988 27.5796L90.68 28.9459ZM87.0522 26.1662C86.3219 25.3181 85.7801 24.3758 85.3561 23.3628L87.4998 22.8917C87.806 23.7397 88.2536 24.5407 88.8426 25.271L87.0522 26.1662ZM84.9791 22.2085C84.6258 20.9364 84.5315 19.6172 84.6729 18.2744L86.9815 18.8162C86.8637 19.8763 86.958 20.9364 87.2171 21.9729L84.9791 22.2085Z" fill="#34A853"/>
</g>
<defs>
<clipPath id="clip0_33_16265">
<rect width="125.184" height="29.88" fill="white" transform="translate(0.407837 0.0600586)"/>
</clipPath>
</defs>
</svg>
