<svg width="126" height="30" viewBox="0 0 126 30" fill="none" xmlns="http://www.w3.org/2000/svg">
<g clip-path="url(#clip0_33_16241)">
<path d="M0.407837 2.94922V24.0803H6.62701C13.4116 24.0803 17.7697 20.1226 17.7697 13.5265C17.7697 6.90687 13.4116 2.94922 6.62701 2.94922H0.407837ZM6.62701 7.42514C10.09 7.42514 12.3986 9.47464 12.3986 13.5265C12.3986 17.5548 10.09 19.6279 6.62701 19.6279H5.56692V7.42514H6.62701ZM33.671 17.4842C33.6945 17.1073 33.6945 16.7774 33.6945 16.4712C33.6945 11.0765 30.9619 7.84917 25.9206 7.84917C21.2562 7.84917 18.123 11.5477 18.123 16.2121C18.123 20.8764 21.3269 24.4807 26.5566 24.4807C30.6556 24.4807 32.8229 21.913 33.2941 20.9707L29.9725 18.4029C29.6662 18.8741 28.5354 20.0991 26.6509 20.0991C24.7663 20.0991 23.3999 18.8976 23.2821 17.4842H33.671ZM26.0148 11.9246C27.5696 11.9246 28.5119 13.0083 28.5826 14.2804H23.447C23.5648 13.1496 24.3422 11.9246 26.0148 11.9246ZM42.717 20.0519C40.4084 20.0519 38.8301 18.4736 38.8301 16.1414C38.8301 14.0448 40.1493 12.3722 42.5521 12.3722C43.73 12.3722 44.8372 12.8198 45.7088 13.5501L47.0752 9.28618C45.968 8.50878 44.4132 7.84917 42.3637 7.84917C37.4637 7.84917 33.7888 11.3121 33.7888 16.1885C33.7888 21.0414 37.3459 24.4807 42.3872 24.4807C44.3896 24.4807 45.9915 23.7976 47.0516 23.0673L45.7088 18.9212C45.0257 19.5101 43.8949 20.0519 42.717 20.0519ZM47.0987 19.1568C47.0987 22.6197 49.8785 24.4807 52.9881 24.4807C54.6136 24.4807 55.7679 24.0331 56.5688 23.2086L56.8515 24.0803H61.351V14.2804C61.351 10.6525 59.9611 7.84917 54.4958 7.84917C51.8573 7.84917 49.7136 8.69724 48.041 9.80444L49.9021 13.1967C51.1506 12.5842 52.4934 12.1837 53.8833 12.1837C55.5323 12.1837 56.3097 12.9376 56.3097 13.9034V14.4924C55.7443 14.2332 54.6371 13.9034 53.2472 13.9034C49.5016 13.9034 47.0987 16.0001 47.0987 19.1568ZM52.14 18.9919C52.14 17.9553 53.0352 17.2957 54.2602 17.2957C55.4616 17.2957 56.4039 17.9082 56.4039 18.9919C56.4039 20.0519 55.4852 20.6173 54.2838 20.6173C53.1059 20.6173 52.14 20.0519 52.14 18.9919ZM73.8364 23.2793C73.8364 25.211 71.9754 25.6351 70.0908 25.6351C67.9471 25.6351 66.1803 24.8812 65.7091 24.6692L64.2486 28.5326C65.662 29.2629 67.8529 29.8754 70.0908 29.8754C74.8023 29.8754 78.8777 28.0379 78.8777 22.1957V8.22609H74.1663V9.47464C73.7187 8.95637 72.211 7.84917 69.8788 7.84917C65.3322 7.84917 62.1284 11.2886 62.1284 16.1414C62.1284 21.0649 65.026 24.4807 69.6197 24.4807C72.0225 24.4807 73.5066 23.2793 73.8364 22.8788V23.2793ZM74.0014 16.1178C74.0014 18.6149 72.5643 20.0519 70.5855 20.0519C68.536 20.0519 67.1697 18.45 67.1697 16.1178C67.1697 13.7621 68.536 12.278 70.562 12.278C72.7292 12.278 74.0014 13.9977 74.0014 16.1178ZM120.551 24.0803H125.592V15.2933C125.592 12.066 125.121 7.84917 120.15 7.84917C118.172 7.84917 116.782 8.93281 116.169 9.87511V8.22609H111.246V24.0803H116.287V14.6337C116.287 13.3616 117.088 12.3722 118.478 12.3722C119.679 12.3722 120.551 13.1496 120.551 14.6337V24.0803Z" fill="white"/>
<path fill-rule="evenodd" clip-rule="evenodd" d="M90.9863 7.04808C91.6694 7.04808 92.3526 7.11875 93.0358 7.26009L92.2113 9.52161C91.8343 9.47449 91.4339 9.45094 91.0334 9.45094C90.0204 9.45094 89.0546 9.61584 88.1358 9.94564L87.7589 7.54278C88.7719 7.21298 89.8555 7.04808 90.9863 7.04808ZM89.7142 22.0777C89.3608 21.4652 89.0781 20.8292 88.8661 20.1931L91.2454 19.7691C91.3868 20.1225 91.5517 20.4758 91.7637 20.8056C92.2584 21.7008 92.8944 22.4547 93.6247 23.0672L91.7637 24.5984C90.9627 23.8917 90.2796 23.0436 89.7142 22.0777ZM109.102 18.0965C109.031 18.6148 108.937 19.1095 108.819 19.6042L107.783 19.1566C107.901 18.7326 108.018 18.3085 108.089 17.8845L109.102 18.0965ZM107.689 22.2191C107.382 22.7609 107.005 23.2556 106.581 23.7268L105.592 22.6667C105.969 22.3133 106.299 21.9128 106.605 21.4888L107.689 22.2191ZM104.767 25.3522C104.508 25.5407 104.249 25.7291 103.966 25.894C103.472 26.1767 102.953 26.4123 102.435 26.6008L101.964 24.834C102.577 24.6455 103.213 24.3864 103.802 24.033C103.896 23.9859 103.966 23.9388 104.061 23.8917L104.767 25.3522ZM100.551 27.119C99.467 27.3075 98.3598 27.3311 97.2761 27.1662L97.9593 25.0931C98.8309 25.258 99.7497 25.258 100.668 25.1402L100.551 27.119ZM96.0982 26.9306L96.9934 24.8811C95.9805 24.5984 95.0146 24.1272 94.1665 23.4912L92.5411 25.2344C93.6012 26.0354 94.8261 26.6008 96.0982 26.9306ZM84.72 25.8234C84.3195 25.5171 83.919 25.1873 83.5657 24.8104L84.4609 24.1508C84.7671 24.4806 85.0734 24.7868 85.4267 25.0695L84.72 25.8234ZM81.846 22.5489C81.5633 22.0071 81.3042 21.4181 81.0921 20.8292L82.5056 20.4994C82.6469 20.9941 82.8118 21.4888 83.0239 21.96L81.846 22.5489ZM80.5974 18.4499C80.5503 18.1201 80.5503 17.8138 80.5503 17.484C80.5503 16.8951 80.5974 16.3533 80.6917 15.7879L82.4585 16.259C82.2936 16.8951 82.2229 17.5783 82.2229 18.2614V18.5441L80.5974 18.4499ZM81.1864 13.9033C81.5633 12.8668 82.1051 11.9009 82.7647 11.0528L84.2253 12.6548C83.6599 13.3615 83.1888 14.1389 82.8354 15.0105L81.1864 13.9033ZM83.5657 10.1341L84.8849 11.948C85.6387 11.2177 86.5339 10.6053 87.4998 10.1812L86.8166 7.9197C85.5916 8.43797 84.4844 9.1918 83.5657 10.1341ZM103.354 15.6466C103.001 16.259 102.6 16.8244 102.153 17.3191L100.598 15.4816C100.833 15.1754 101.045 14.8456 101.234 14.5158C101.752 13.6206 102.082 12.7019 102.27 11.7596L104.532 12.6076C104.296 13.6677 103.919 14.6807 103.354 15.6466ZM90.2324 0.852463C90.7036 0.640446 91.1747 0.475544 91.6694 0.357756L91.7872 1.46496C91.3632 1.55919 90.9392 1.67697 90.5387 1.84188L90.2324 0.852463ZM94.4963 0.00439453C95.1088 0.00439453 95.7449 0.0750669 96.3574 0.192854L95.9333 1.58274C95.4386 1.4414 94.9204 1.37073 94.4021 1.32361L94.4963 0.00439453ZM98.666 0.946693C98.9723 1.08804 99.2549 1.22938 99.5376 1.39428C100.032 1.67697 100.503 2.00678 100.928 2.36014L99.6319 3.6558C99.1607 3.20821 98.6189 2.80773 98.0064 2.45437C97.9357 2.40726 97.8415 2.36014 97.7708 2.31303L98.666 0.946693ZM102.317 3.72647C103.024 4.57454 103.59 5.5404 103.99 6.52981L101.87 7.00096C101.54 6.15289 101.092 5.35194 100.527 4.62166L102.317 3.72647ZM104.39 7.68413C104.72 8.95623 104.838 10.299 104.673 11.6182L102.365 11.0764C102.482 10.0163 102.412 8.95623 102.153 7.94326L104.39 7.68413Z" fill="#B8D344"/>
<path fill-rule="evenodd" clip-rule="evenodd" d="M86.0157 14.186C86.369 13.5971 86.7695 13.0317 87.2171 12.5134L88.7719 14.3509C88.5363 14.6572 88.3243 14.987 88.1123 15.3403C87.6176 16.212 87.2642 17.1543 87.0993 18.0966L84.8378 17.2249C85.0734 16.1884 85.4503 15.1519 86.0157 14.186ZM99.6554 7.7784C100.009 8.39089 100.268 9.00339 100.503 9.66299L98.1242 10.087C97.9828 9.73367 97.7944 9.3803 97.6059 9.02694C97.0877 8.15532 96.4516 7.40148 95.7213 6.76543L97.6059 5.25775C98.3833 5.96447 99.09 6.81254 99.6554 7.7784ZM80.2676 11.7361C80.3148 11.2413 80.409 10.7466 80.5503 10.2519L81.5869 10.6995C81.4455 11.1 81.3513 11.524 81.2806 11.9716L80.2676 11.7361ZM81.6811 7.61349C81.9873 7.09523 82.3643 6.57697 82.7647 6.10582L83.7541 7.1659C83.4008 7.54282 83.0474 7.9433 82.7647 8.34378L81.6811 7.61349ZM84.5787 4.48035C84.8378 4.29189 85.1205 4.12699 85.4032 3.96209C85.8979 3.6794 86.3926 3.42027 86.9108 3.23181L87.4055 4.99862C86.7695 5.18708 86.157 5.44621 85.5445 5.79957C85.4738 5.84669 85.3796 5.8938 85.3089 5.94092L84.5787 4.48035ZM88.819 2.71354C89.9026 2.52508 91.0098 2.50153 92.0935 2.66643L91.4103 4.73948C90.5151 4.59814 89.5964 4.57458 88.7012 4.71593L88.819 2.71354ZM93.2714 2.902L92.3762 4.9515C93.3891 5.23419 94.3314 5.70534 95.2031 6.34139L96.8285 4.59814C95.7449 3.82074 94.5435 3.23181 93.2714 2.902ZM98.3833 22.7845C97.6766 22.7845 96.9934 22.7138 96.3338 22.596L97.1583 20.311C97.5353 20.3581 97.9357 20.4052 98.3127 20.4052C99.3492 20.4052 100.315 20.2167 101.234 19.9105L101.587 22.2898C100.574 22.6196 99.5141 22.7845 98.3833 22.7845ZM104.65 4.03276C105.05 4.33901 105.427 4.66881 105.78 5.02217L104.885 5.70534C104.602 5.37554 104.273 5.06929 103.943 4.7866L104.65 4.03276ZM107.5 7.30725C107.806 7.84907 108.065 8.41445 108.277 9.00339L106.864 9.33319C106.723 8.83848 106.534 8.34378 106.322 7.87263L107.5 7.30725ZM108.772 11.4062C108.796 11.7125 108.819 12.0423 108.819 12.3721C108.819 12.9375 108.772 13.5029 108.678 14.0447L106.911 13.5735C107.052 12.9375 107.147 12.2779 107.147 11.5711C107.147 11.4769 107.147 11.3827 107.123 11.2885L108.772 11.4062ZM108.183 15.9528C107.806 16.9894 107.264 17.9552 106.605 18.8033L105.121 17.1778C105.71 16.4711 106.181 15.6937 106.511 14.8456L108.183 15.9528ZM105.78 19.6985L104.461 17.9081C103.707 18.6384 102.836 19.2273 101.846 19.6514L102.553 21.9364C103.778 21.3946 104.862 20.6408 105.78 19.6985ZM99.1372 29.0037C98.666 29.1921 98.1949 29.357 97.7002 29.4984L97.5588 28.3676C97.9828 28.2969 98.4069 28.1556 98.8309 28.0143L99.1372 29.0037ZM94.8733 29.8282C94.2372 29.8282 93.6247 29.7575 93.0122 29.6397L93.4363 28.2498C93.931 28.3912 94.4492 28.4854 94.9439 28.5325L94.8733 29.8282ZM90.68 28.8859C90.3973 28.7445 90.1147 28.6032 89.832 28.4383C89.3373 28.1556 88.8661 27.8258 88.4421 27.4724L89.7142 26.1768C90.2089 26.6244 90.7507 27.0484 91.3396 27.3782C91.4339 27.4253 91.5045 27.4724 91.5988 27.5196L90.68 28.8859ZM87.0522 26.1061C86.3219 25.258 85.7801 24.3157 85.3561 23.3028L87.4998 22.8316C87.806 23.6797 88.2536 24.4806 88.8426 25.2109L87.0522 26.1061ZM84.9791 22.1485C84.6258 20.8763 84.5315 19.5571 84.6729 18.2144L86.9815 18.7562C86.8637 19.8163 86.958 20.8763 87.2171 21.9129L84.9791 22.1485Z" fill="#34A853"/>
</g>
<defs>
<clipPath id="clip0_33_16241">
<rect width="125.184" height="29.88" fill="white" transform="translate(0.407837)"/>
</clipPath>
</defs>
</svg>
