<svg width="136" height="42" viewBox="0 0 136 42" fill="none" xmlns="http://www.w3.org/2000/svg">
<path d="M8.59561 32.2344C7.38823 32.2344 6.29093 31.9219 5.30371 31.2969C4.3165 30.6719 3.52814 29.7344 2.93865 28.4844C2.34917 27.2344 2.05442 25.6825 2.05442 23.8288C2.05442 21.9041 2.35982 20.3203 2.97061 19.0774C3.58141 17.8345 4.38042 16.9148 5.36763 16.3182C6.36195 15.7216 7.43084 15.4233 8.57431 15.4233C9.43368 15.4233 10.1688 15.5724 10.7796 15.8707C11.3904 16.1619 11.8946 16.5384 12.2923 17C12.6901 17.4616 12.9919 17.9411 13.1979 18.4382H13.3044V10.1818H18.5139V32H13.3577V29.3473H13.1979C12.9777 29.8516 12.6652 30.3239 12.2604 30.7642C11.8556 31.2045 11.3477 31.5597 10.7369 31.8295C10.1333 32.0994 9.41948 32.2344 8.59561 32.2344ZM10.4067 28.1754C11.0388 28.1754 11.5786 27.9979 12.026 27.6428C12.4735 27.2805 12.8179 26.7727 13.0594 26.1193C13.3009 25.4659 13.4216 24.6989 13.4216 23.8182C13.4216 22.9233 13.3009 22.1527 13.0594 21.5064C12.825 20.8601 12.4806 20.3629 12.026 20.0149C11.5786 19.6669 11.0388 19.4929 10.4067 19.4929C9.76039 19.4929 9.21351 19.6705 8.76607 20.0256C8.31863 20.3807 7.97772 20.8814 7.74334 21.5277C7.51607 22.174 7.40243 22.9375 7.40243 23.8182C7.40243 24.6989 7.51962 25.4659 7.754 26.1193C7.98837 26.7727 8.32573 27.2805 8.76607 27.6428C9.21351 27.9979 9.76039 28.1754 10.4067 28.1754ZM29.697 32.3089C27.9782 32.3089 26.501 31.9574 25.2652 31.2543C24.0365 30.544 23.0883 29.5568 22.4207 28.2926C21.7602 27.0213 21.43 25.5476 21.43 23.8714C21.43 22.1882 21.7602 20.7145 22.4207 19.4503C23.0883 18.179 24.0365 17.1918 25.2652 16.4886C26.501 15.7784 27.9782 15.4233 29.697 15.4233C31.4157 15.4233 32.8895 15.7784 34.1182 16.4886C35.354 17.1918 36.3021 18.179 36.9626 19.4503C37.6302 20.7145 37.964 22.1882 37.964 23.8714C37.964 25.5476 37.6302 27.0213 36.9626 28.2926C36.3021 29.5568 35.354 30.544 34.1182 31.2543C32.8895 31.9574 31.4157 32.3089 29.697 32.3089ZM29.729 28.3778C30.354 28.3778 30.8831 28.1861 31.3163 27.8026C31.7496 27.419 32.0798 26.8864 32.3071 26.2045C32.5415 25.5227 32.6586 24.7344 32.6586 23.8395C32.6586 22.9304 32.5415 22.1349 32.3071 21.4531C32.0798 20.7713 31.7496 20.2386 31.3163 19.8551C30.8831 19.4716 30.354 19.2798 29.729 19.2798C29.0827 19.2798 28.5358 19.4716 28.0883 19.8551C27.648 20.2386 27.3106 20.7713 27.0763 21.4531C26.849 22.1349 26.7354 22.9304 26.7354 23.8395C26.7354 24.7344 26.849 25.5227 27.0763 26.2045C27.3106 26.8864 27.648 27.419 28.0883 27.8026C28.5358 28.1861 29.0827 28.3778 29.729 28.3778ZM51.4403 24.9368V15.6364H56.6391V32H51.6746V28.9531H51.5042C51.142 29.9545 50.5241 30.75 49.6505 31.3395C48.784 31.9219 47.7364 32.2131 46.5077 32.2131C45.3927 32.2131 44.4126 31.9574 43.5674 31.446C42.7222 30.9347 42.0653 30.2209 41.5965 29.3047C41.1278 28.3814 40.8898 27.3018 40.8827 26.0661V15.6364H46.0922V25.0433C46.0993 25.9311 46.3337 26.6307 46.7954 27.142C47.257 27.6534 47.8856 27.9091 48.681 27.9091C49.1995 27.9091 49.6647 27.7955 50.0766 27.5682C50.4957 27.3338 50.8259 26.9964 51.0674 26.5561C51.316 26.1087 51.4403 25.5689 51.4403 24.9368ZM60.205 32V10.1818H65.4145V18.4382H65.521C65.7341 17.9411 66.036 17.4616 66.4266 17C66.8243 16.5384 67.3286 16.1619 67.9394 15.8707C68.5573 15.5724 69.2959 15.4233 70.1553 15.4233C71.2916 15.4233 72.3534 15.7216 73.3406 16.3182C74.335 16.9148 75.1375 17.8345 75.7483 19.0774C76.3591 20.3203 76.6645 21.9041 76.6645 23.8288C76.6645 25.6825 76.3698 27.2344 75.7803 28.4844C75.1979 29.7344 74.4095 30.6719 73.4152 31.2969C72.428 31.9219 71.3307 32.2344 70.1233 32.2344C69.2994 32.2344 68.5857 32.0994 67.982 31.8295C67.3783 31.5597 66.8705 31.2045 66.4585 30.7642C66.0537 30.3239 65.7412 29.8516 65.521 29.3473H65.3612V32H60.205ZM65.308 23.8182C65.308 24.6989 65.4252 25.4659 65.6595 26.1193C65.901 26.7727 66.2455 27.2805 66.6929 27.6428C67.1475 27.9979 67.6908 28.1754 68.3229 28.1754C68.9621 28.1754 69.5054 27.9979 69.9529 27.6428C70.4003 27.2805 70.7377 26.7727 70.9649 26.1193C71.1993 25.4659 71.3165 24.6989 71.3165 23.8182C71.3165 22.9375 71.1993 22.174 70.9649 21.5277C70.7377 20.8814 70.4003 20.3807 69.9529 20.0256C69.5125 19.6705 68.9692 19.4929 68.3229 19.4929C67.6837 19.4929 67.1404 19.6669 66.6929 20.0149C66.2455 20.3629 65.901 20.8601 65.6595 21.5064C65.4252 22.1527 65.308 22.9233 65.308 23.8182ZM84.854 10.1818V32H79.6444V10.1818H84.854ZM96.069 32.3089C94.3573 32.3089 92.8801 31.9716 91.6372 31.2969C90.4014 30.6151 89.4497 29.6456 88.782 28.3885C88.1215 27.1243 87.7913 25.6222 87.7913 23.8821C87.7913 22.1918 88.1251 20.7145 88.7927 19.4503C89.4603 18.179 90.4014 17.1918 91.6159 16.4886C92.8303 15.7784 94.2615 15.4233 95.9092 15.4233C97.074 15.4233 98.1393 15.6044 99.1052 15.9666C100.071 16.3288 100.906 16.8651 101.609 17.5753C102.312 18.2855 102.859 19.1626 103.249 20.2067C103.64 21.2436 103.835 22.4332 103.835 23.7756V25.0753H89.613V22.0497H98.988C98.9809 21.4957 98.8495 21.0021 98.5938 20.5689C98.3382 20.1357 97.9866 19.7983 97.5392 19.5568C97.0988 19.3082 96.591 19.1839 96.0157 19.1839C95.4333 19.1839 94.9113 19.3153 94.4497 19.5781C93.988 19.8338 93.6222 20.1854 93.3524 20.6328C93.0825 21.0732 92.9404 21.5739 92.9262 22.1349V25.2138C92.9262 25.8814 93.0576 26.4673 93.3204 26.9716C93.5832 27.4687 93.9561 27.8558 94.439 28.1328C94.922 28.4098 95.4972 28.5483 96.1649 28.5483C96.6265 28.5483 97.0455 28.4844 97.422 28.3565C97.7984 28.2287 98.1215 28.0405 98.3914 27.7919C98.6613 27.5433 98.8637 27.2379 98.9987 26.8757L103.782 27.0142C103.583 28.0866 103.146 29.0206 102.472 29.8161C101.804 30.6044 100.927 31.2187 99.8403 31.6591C98.7536 32.0923 97.4965 32.3089 96.069 32.3089Z" fill="black"/>
<circle cx="120.968" cy="21" r="15" fill="black"/>
<path d="M125.938 17.3089C125.817 16.8615 125.64 16.4673 125.406 16.1264C125.171 15.7784 124.884 15.4837 124.543 15.2422C124.202 15.0007 123.811 14.8196 123.371 14.6989C122.93 14.571 122.447 14.5071 121.922 14.5071C120.864 14.5071 119.947 14.7628 119.173 15.2741C118.406 15.7855 117.813 16.5312 117.394 17.5114C116.975 18.4844 116.766 19.6669 116.766 21.0589C116.766 22.4581 116.968 23.6513 117.373 24.6385C117.778 25.6257 118.364 26.3786 119.131 26.897C119.898 27.4155 120.828 27.6747 121.922 27.6747C122.888 27.6747 123.705 27.5185 124.372 27.206C125.047 26.8864 125.558 26.4354 125.906 25.853C126.254 25.2706 126.428 24.5852 126.428 23.7969L127.408 23.9141H122.103V20.0682H131.51V22.9553C131.51 24.9084 131.094 26.581 130.263 27.973C129.44 29.3651 128.303 30.4339 126.854 31.1797C125.413 31.9254 123.754 32.2983 121.879 32.2983C119.798 32.2983 117.969 31.8473 116.393 30.9453C114.816 30.0433 113.587 28.7578 112.707 27.0888C111.826 25.4126 111.386 23.424 111.386 21.1229C111.386 19.3331 111.652 17.7457 112.185 16.3608C112.717 14.9687 113.46 13.7898 114.411 12.8239C115.37 11.858 116.478 11.1264 117.735 10.6293C118.999 10.1321 120.359 9.88352 121.815 9.88352C123.08 9.88352 124.255 10.0646 125.342 10.4268C126.435 10.7891 127.401 11.3004 128.239 11.9609C129.085 12.6214 129.77 13.4063 130.295 14.3153C130.821 15.2244 131.148 16.2223 131.276 17.3089H125.938Z" fill="white"/>
</svg>
