<svg width="124" height="96" viewBox="0 0 124 96" fill="none" xmlns="http://www.w3.org/2000/svg">
<path d="M81.5853 72.1719H11.7793C9.96479 72.1719 8.4873 70.6954 8.4873 68.8799V24.6586C8.4873 22.8431 9.96383 21.3666 11.7793 21.3666H81.5853C83.4007 21.3666 84.8773 22.8431 84.8773 24.6586V68.8799C84.8773 70.6954 83.4007 72.1719 81.5853 72.1719ZM11.7793 22.537C10.6099 22.537 9.65867 23.4892 9.65867 24.6586V68.8799C9.65867 70.0493 10.6099 71.0015 11.7793 71.0015H81.5853C82.7547 71.0015 83.7069 70.0493 83.7069 68.8799V24.6586C83.7069 23.4892 82.7547 22.537 81.5853 22.537H11.7793Z" fill="#12B76A"/>
<path d="M84.2921 33.0272H9.07348C8.74998 33.0272 8.48828 32.7655 8.48828 32.442C8.48828 32.1184 8.74998 31.8568 9.07348 31.8568H84.2921C84.6156 31.8568 84.8773 32.1184 84.8773 32.442C84.8773 32.7655 84.6156 33.0272 84.2921 33.0272Z" fill="#12B76A"/>
<path d="M77.3846 47.3549H48.4741C48.1506 47.3549 47.8889 47.0932 47.8889 46.7697V38.8386C47.8889 38.5151 48.1506 38.2534 48.4741 38.2534H77.3846C77.7081 38.2534 77.9698 38.5151 77.9698 38.8386V46.7697C77.9698 47.0932 77.7081 47.3549 77.3846 47.3549ZM49.0593 46.1836H76.7994V39.4229H49.0593V46.1836Z" fill="#12B76A"/>
<path d="M77.3846 60.5306H48.4741C48.1506 60.5306 47.8889 60.2689 47.8889 59.9454V51.63C47.8889 51.3065 48.1506 51.0448 48.4741 51.0448H77.3846C77.7081 51.0448 77.9698 51.3065 77.9698 51.63V59.9454C77.9698 60.2689 77.7081 60.5306 77.3846 60.5306ZM49.0593 59.3593H76.7994V52.2152H49.0593V59.3593Z" fill="#12B76A"/>
<path d="M58.8639 30.7144C57.0899 30.7144 55.6462 29.2707 55.6462 27.4967C55.6462 25.7228 57.0899 24.2791 58.8639 24.2791C60.6378 24.2791 62.0815 25.7228 62.0815 27.4967C62.0815 29.2707 60.6378 30.7144 58.8639 30.7144ZM58.8639 25.4495C57.735 25.4495 56.8166 26.3678 56.8166 27.4967C56.8166 28.6256 57.735 29.544 58.8639 29.544C59.9928 29.544 60.9111 28.6256 60.9111 27.4967C60.9111 26.3678 59.9928 25.4495 58.8639 25.4495Z" fill="#12B76A"/>
<path d="M67.0414 30.7144C65.2674 30.7144 63.8237 29.2707 63.8237 27.4967C63.8237 25.7228 65.2674 24.2791 67.0414 24.2791C68.8153 24.2791 70.259 25.7228 70.259 27.4967C70.259 29.2707 68.8153 30.7144 67.0414 30.7144ZM67.0414 25.4495C65.9125 25.4495 64.9941 26.3678 64.9941 27.4967C64.9941 28.6256 65.9125 29.544 67.0414 29.544C68.1702 29.544 69.0886 28.6256 69.0886 27.4967C69.0886 26.3678 68.1702 25.4495 67.0414 25.4495Z" fill="#12B76A"/>
<path d="M75.2186 30.7144C73.4447 30.7144 72.001 29.2707 72.001 27.4967C72.001 25.7228 73.4447 24.2791 75.2186 24.2791C76.9926 24.2791 78.4363 25.7228 78.4363 27.4967C78.4363 29.2707 76.9926 30.7144 75.2186 30.7144ZM75.2186 25.4495C74.0897 25.4495 73.1714 26.3678 73.1714 27.4967C73.1714 28.6256 74.0897 29.544 75.2186 29.544C76.3475 29.544 77.2659 28.6256 77.2659 27.4967C77.2659 26.3678 76.3475 25.4495 75.2186 25.4495Z" fill="#12B76A"/>
<path d="M49.2679 15.8053H27.4146C25.209 15.8053 23.4148 14.011 23.4148 11.8054V3.99984C23.4148 1.79423 25.209 0 27.4146 0H49.2679C51.4735 0 53.2678 1.79423 53.2678 3.99984V11.8054C53.2678 14.011 51.4735 15.8053 49.2679 15.8053ZM27.4146 1.17137C25.8551 1.17137 24.5852 2.44027 24.5852 4.0008V11.8064C24.5852 13.366 25.8541 14.6358 27.4146 14.6358H49.2679C50.8275 14.6358 52.0974 13.3669 52.0974 11.8064V4.0008C52.0974 2.44123 50.8285 1.17137 49.2679 1.17137H27.4146Z" fill="#12B76A"/>
<path d="M41.5598 33.0272C41.2711 33.0272 41.02 32.8147 40.9804 32.5212L38.6387 15.3002C38.5952 14.9796 38.8202 14.6851 39.1399 14.6407C39.4643 14.5991 39.756 14.8212 39.7994 15.1418L42.1412 32.3628C42.1846 32.6824 41.9596 32.9779 41.64 33.0223C41.613 33.0262 41.5869 33.0272 41.5608 33.0272H41.5598Z" fill="#12B76A"/>
<path d="M119.511 36.2931H103.511C101.305 36.2931 99.511 34.4988 99.511 32.2932V24.4877C99.511 22.2821 101.305 20.4878 103.511 20.4878H119.511C121.717 20.4878 123.511 22.2821 123.511 24.4877V32.2932C123.511 34.4988 121.717 36.2931 119.511 36.2931ZM103.511 21.6592C101.951 21.6592 100.681 22.9281 100.681 24.4886V32.2942C100.681 33.8538 101.95 35.1236 103.511 35.1236H119.511C121.071 35.1236 122.341 33.8547 122.341 32.2942V24.4886C122.341 22.9291 121.072 21.6592 119.511 21.6592H103.511Z" fill="#12B76A"/>
<path d="M119.511 66.147H103.511C101.305 66.147 99.511 64.3528 99.511 62.1472V54.3416C99.511 52.136 101.305 50.3418 103.511 50.3418H119.511C121.717 50.3418 123.511 52.136 123.511 54.3416V62.1472C123.511 64.3528 121.717 66.147 119.511 66.147ZM103.511 51.5131C101.951 51.5131 100.681 52.782 100.681 54.3426V62.1481C100.681 63.7077 101.95 64.9776 103.511 64.9776H119.511C121.071 64.9776 122.341 63.7087 122.341 62.1481V54.3426C122.341 52.783 121.072 51.5131 119.511 51.5131H103.511Z" fill="#12B76A"/>
<path d="M92.5855 96H70.7313C68.5257 96 66.7314 94.2058 66.7314 92.0002V84.1946C66.7314 81.989 68.5257 80.1947 70.7313 80.1947H92.5855C94.7912 80.1947 96.5854 81.989 96.5854 84.1946V92.0002C96.5854 94.2058 94.7912 96 92.5855 96ZM70.7313 81.3661C69.1717 81.3661 67.9018 82.635 67.9018 84.1956V92.0011C67.9018 93.5607 69.1707 94.8306 70.7313 94.8306H92.5855C94.1451 94.8306 95.415 93.5617 95.415 92.0011V84.1956C95.415 82.636 94.1461 81.3661 92.5855 81.3661H70.7313Z" fill="#12B76A"/>
<path d="M20.0002 96H3.99984C1.79423 96 0 94.2058 0 92.0002V84.1946C0 81.989 1.79423 80.1947 3.99984 80.1947H19.9992C22.2048 80.1947 23.999 81.989 23.999 84.1946V92.0002C23.999 94.2058 22.2048 96 19.9992 96H20.0002ZM3.99984 81.3661C2.44027 81.3661 1.1704 82.635 1.1704 84.1956V92.0011C1.1704 93.5607 2.4393 94.8306 3.99984 94.8306H19.9992C21.5588 94.8306 22.8286 93.5617 22.8286 92.0011V84.1956C22.8286 82.636 21.5597 81.3661 19.9992 81.3661H3.99984Z" fill="#12B76A"/>
<path d="M81.6577 81.3661C81.5283 81.3661 81.3979 81.3236 81.2897 81.2348L70.4606 72.4548C70.2095 72.2511 70.1709 71.8822 70.3747 71.6321C70.5784 71.382 70.9464 71.3424 71.1974 71.5461L82.0265 80.327C82.2776 80.5308 82.3162 80.8997 82.1125 81.1498C81.9966 81.2918 81.8276 81.3661 81.6577 81.3661Z" fill="#12B76A"/>
<path d="M84.2933 39.4228C84.0866 39.4228 83.8867 39.3137 83.7795 39.1196C83.6231 38.8367 83.7264 38.4803 84.0103 38.3249L99.8156 29.6164C100.099 29.4609 100.454 29.5633 100.61 29.8472C100.767 30.1301 100.663 30.4865 100.38 30.6419L84.5752 39.3504C84.4854 39.3997 84.3889 39.4228 84.2933 39.4228Z" fill="#12B76A"/>
<path d="M100.096 60.0883C100.023 60.0883 99.9486 60.0748 99.8761 60.0458L84.0718 53.6164C83.7725 53.4937 83.6286 53.1528 83.7503 52.8535C83.8729 52.5541 84.2128 52.4102 84.5132 52.5319L100.317 58.9614C100.617 59.084 100.761 59.4249 100.639 59.7243C100.546 59.9512 100.327 60.0893 100.096 60.0893V60.0883Z" fill="#12B76A"/>
<path d="M12.293 80.7809C12.1298 80.7809 11.9675 80.7133 11.8526 80.581C11.6392 80.3377 11.6643 79.9678 11.9076 79.7554L21.2738 71.5606C21.5171 71.3472 21.887 71.3723 22.0994 71.6156C22.3128 71.859 22.2877 72.2289 22.0444 72.4413L12.6783 80.636C12.5672 80.7336 12.4291 80.7809 12.293 80.7809Z" fill="#12B76A"/>
<path d="M18.687 62.0728C18.5373 62.0728 18.3925 62.0149 18.2843 61.9125L15.0589 58.8503C14.8243 58.6273 14.8146 58.2574 15.0377 58.0228L25.3511 47.1598L22.4213 44.3787C22.2735 44.2387 22.2098 44.032 22.2513 43.8331C22.2938 43.6342 22.4357 43.471 22.627 43.4024L36.9325 38.2814C37.1382 38.208 37.3729 38.2563 37.5332 38.4079C37.6935 38.5595 37.7543 38.7894 37.6906 39.0008L33.3189 53.5536C33.26 53.7477 33.1055 53.8984 32.9085 53.9505C32.7125 54.0026 32.5029 53.9495 32.3552 53.8095L29.4253 51.0284L19.1109 61.8922C19.0037 62.0052 18.8569 62.0709 18.7015 62.0747H18.686L18.687 62.0728ZM16.2892 58.4042L18.6657 60.66L28.9792 49.7962C29.0864 49.6832 29.2332 49.6175 29.3886 49.6136C29.5441 49.6136 29.6947 49.6677 29.8068 49.7739L32.4711 52.304L36.2362 39.7734L23.9171 44.1827L26.5814 46.7118C26.6944 46.819 26.7591 46.9657 26.7639 47.1212C26.7678 47.2767 26.7098 47.4273 26.6036 47.5394L16.2902 58.4023L16.2892 58.4042Z" fill="#12B76A"/>
<path d="M71.8503 84.2023H74.0753C75.8212 84.2023 76.9993 84.7894 76.9993 86.4968C76.9993 88.2041 75.827 88.9032 74.1226 88.9032H72.8421V91.9944H71.8503V84.2033V84.2023ZM73.998 88.0988C75.3606 88.0988 76.0105 87.6054 76.0105 86.4968C76.0105 85.3882 75.3191 85.0067 73.9507 85.0067H72.8421V88.0988H73.998Z" fill="#12B76A"/>
<path d="M78.5764 84.2023H79.5682V87.4653H83.1914V84.2023H84.1822V91.9934H83.1914V88.3306H79.5682V91.9934H78.5764V84.2023Z" fill="#12B76A"/>
<path d="M86.3162 84.2023H88.5411C90.287 84.2023 91.4652 84.7895 91.4652 86.4968C91.4652 88.2041 90.2928 88.9033 88.5884 88.9033H87.3079V91.9944H86.3162V84.2033V84.2023ZM88.4648 88.0988C89.8274 88.0988 90.4773 87.6054 90.4773 86.4968C90.4773 85.3882 89.7858 85.0067 88.4175 85.0067H87.3089V88.0988H88.4648Z" fill="#12B76A"/>
<path d="M106.727 28.8419V24.1062H107.753V28.8699C107.753 30.808 108.572 31.4174 109.626 31.4174C110.679 31.4174 111.539 30.808 111.539 28.8699V24.1062H112.523V28.8419C112.523 31.4299 111.272 32.3203 109.627 32.3203C107.981 32.3203 106.728 31.4299 106.728 28.8419H106.727Z" fill="#12B76A"/>
<path d="M114.695 24.1062H115.721V32.1725H114.695V24.1062Z" fill="#12B76A"/>
<path d="M104.824 58.6224V53.8868H105.851V58.6505C105.851 60.5886 106.67 61.1979 107.723 61.1979C108.777 61.1979 109.636 60.5886 109.636 58.6505V53.8868H110.62V58.6224C110.62 61.2105 109.37 62.1008 107.724 62.1008C106.079 62.1008 104.825 61.2105 104.825 58.6224H104.824Z" fill="#12B76A"/>
<path d="M114.102 57.7862L111.906 53.8867H113.038L114.138 55.9514C114.342 56.3203 114.514 56.6544 114.766 57.1237H114.815C115.035 56.6544 115.191 56.3203 115.385 55.9514L116.458 53.8867H117.539L115.343 57.8383L117.692 61.954H116.559L115.376 59.7832C115.164 59.3805 114.946 58.9788 114.687 58.4863H114.638C114.404 58.9778 114.2 59.3805 113.997 59.7832L112.833 61.954H111.752L114.102 57.7871V57.7862Z" fill="#12B76A"/>
<path d="M28.8042 7.58636C28.8042 4.98482 30.3377 3.39821 32.384 3.39821C33.3632 3.39821 34.1299 3.87429 34.6021 4.39286L34.0401 5.06207C33.6162 4.60917 33.0821 4.30112 32.4023 4.30112C30.8775 4.30112 29.8645 5.54974 29.8645 7.55932C29.8645 9.56889 30.8321 10.8581 32.3617 10.8581C33.1314 10.8581 33.7166 10.523 34.2313 9.95227L34.7933 10.5964C34.156 11.337 33.3661 11.761 32.3183 11.761C30.3087 11.761 28.8032 10.2072 28.8032 7.58732L28.8042 7.58636Z" fill="#12B76A"/>
<path d="M37.8372 7.93593H35.6055V7.17594H37.8372V4.77719H38.6464V7.17594H40.8781V7.93593H38.6464V10.3347H37.8372V7.93593Z" fill="#12B76A"/>
<path d="M43.947 7.93593H41.7153V7.17594H43.947V4.77719H44.7563V7.17594H46.9879V7.93593H44.7563V10.3347H43.947V7.93593Z" fill="#12B76A"/>
<path d="M13.2084 82.7519H13.9394L10.658 93.4448H9.927L13.2084 82.7519Z" fill="#12B76A"/>
<path d="M14.5264 90.6608L18.0917 89.0375L20.3436 87.9974V87.9144L18.0917 86.8744L14.5264 85.251V83.7523L21.7641 87.2732V88.6386L14.5264 92.1595V90.6608Z" fill="#12B76A"/>
<path d="M9.47213 92.1595L2.23438 88.6386V87.2732L9.47213 83.7523V85.251L5.90685 86.8744L3.65489 87.9144V87.9974L5.90685 89.0375L9.47213 90.6608V92.1595Z" fill="#12B76A"/>
<path d="M11.9994 67.3174C11.8372 67.3174 11.7068 67.1861 11.7068 67.0248V24.8788C11.7068 24.7165 11.8381 24.5862 11.9994 24.5862C12.1607 24.5862 12.292 24.7175 12.292 24.8788V67.0248C12.292 67.187 12.1607 67.3174 11.9994 67.3174Z" fill="#12B76A"/>
<path d="M13.7562 66.7322C13.594 66.7322 13.4636 66.6009 13.4636 66.4396V45.9518C13.4636 45.7895 13.595 45.6592 13.7562 45.6592C13.9175 45.6592 14.0488 45.7905 14.0488 45.9518V66.4396C14.0488 66.6018 13.9175 66.7322 13.7562 66.7322Z" fill="#12B76A"/>
<path d="M81.6577 69.074H45.9508C45.7886 69.074 45.6582 68.9426 45.6582 68.7814C45.6582 68.6201 45.7895 68.4888 45.9508 68.4888H81.6577C81.82 68.4888 81.9503 68.6201 81.9503 68.7814C81.9503 68.9426 81.819 69.074 81.6577 69.074Z" fill="#12B76A"/>
</svg>
