<svg width="99" height="95" viewBox="0 0 99 95" fill="none" xmlns="http://www.w3.org/2000/svg">
<g clip-path="url(#clip0_8578_2915)">
<path d="M40.4313 86.0735L28.9711 64.669C28.788 64.3269 28.8133 63.8925 29.0345 63.5633C29.2561 63.2325 29.6335 63.0701 29.9957 63.1476L35.1171 64.242L39.7513 42.5566C39.8685 42.0083 40.3706 41.6519 40.8742 41.7595L59.4777 45.7351C59.9812 45.8427 60.2938 46.3733 60.1767 46.9215L55.5424 68.607L60.6638 69.7014C61.0261 69.7788 61.3041 70.0812 61.3711 70.4737C61.4385 70.8646 61.2855 71.2717 60.9771 71.5087L41.7691 86.3594" fill="#12B76A"/>
<path d="M41.558 84.0812L58.1637 71.2429L54.2088 70.3977C53.7052 70.2901 53.3926 69.7595 53.5098 69.2113L58.144 47.5259L41.3639 43.9399L36.7296 65.6254C36.6125 66.1736 36.1103 66.53 35.6068 66.4224L31.6519 65.5773L41.5595 84.0815" fill="#12B76A"/>
<path d="M57.1068 12.2492C62.3296 13.1925 66.4567 16.3282 68.6603 21.0584C70.587 25.1939 70.8784 30.1264 69.5548 35.0183C73.7348 31.897 76.9329 32.5839 79.2298 33.0747L79.3425 33.0988C87.8266 34.9119 93.0907 44.054 91.0767 53.4787C89.0626 62.9034 80.5215 69.0953 72.0375 67.2823C69.8699 66.8191 65.3012 65.9112 60.4658 64.9497L55.5958 63.9809L55.5838 63.9783C55.0847 63.8717 54.7719 63.3496 54.882 62.805C54.9931 62.2555 55.4921 61.8915 55.9956 61.9923L60.8656 62.9611C65.7085 63.9242 70.2832 64.8334 72.4613 65.2988C79.9397 66.897 87.4728 61.4205 89.2533 53.0891C91.0337 44.7576 86.3971 36.6804 78.9187 35.0823L78.6917 35.0338C76.2039 34.5021 72.8156 33.867 68.0636 38.9658C67.737 39.317 67.2315 39.3732 66.8643 39.098C66.4987 38.823 66.375 38.2986 66.5745 37.8501C68.9854 32.4016 69.1341 26.6306 66.9844 22.0162C65.0411 17.8482 61.4003 15.0697 56.7358 14.2423" fill="#12B76A"/>
<path d="M56.7354 14.2439C49.2435 12.8859 44.0655 15.1454 40.9057 21.1491C40.7736 21.3998 40.5523 21.5818 40.2968 21.6522C40.0398 21.7221 39.772 21.6735 39.5568 21.518C38.9444 21.0739 38.2614 20.7688 37.5279 20.6121C34.8973 20.0499 32.2418 21.5017 31.0709 24.1418C30.9612 24.3904 30.766 24.5832 30.5273 24.6776C30.2883 24.7737 30.0274 24.759 29.8046 24.6464C29.027 24.2475 28.2268 23.9464 27.5488 23.8015C20.0705 22.2034 12.5373 27.6798 10.7569 36.0113C8.97643 44.3428 13.6131 52.42 21.0915 54.0181C23.3583 54.5025 28.0428 55.6405 33.0022 56.8458L37.3524 57.9004C37.8517 58.0208 38.1543 58.5612 38.0237 59.1065C37.8948 59.6505 37.3676 60.0359 36.8835 59.8742L32.5317 58.8193C27.5844 57.6166 22.91 56.4825 20.6658 56.0029C12.1848 54.1905 6.92094 45.0467 8.93502 35.622C10.9491 26.1973 19.4902 20.0053 27.9742 21.8184C28.5635 21.9443 29.1993 22.1538 29.8456 22.4322C31.5644 19.4934 34.7725 17.9492 37.9532 18.6289C38.5981 18.7667 39.2121 18.9904 39.7891 19.2985C43.3998 13.1926 49.2207 10.8224 57.1078 12.2512" fill="#12B76A"/>
<path d="M55.116 9.36986C45.1792 6.19051 40.0863 13.1861 39.8743 13.4865C39.7577 13.6498 39.5711 13.7211 39.3998 13.6845C39.3351 13.6707 39.2736 13.6422 39.2172 13.5976C39.0131 13.4342 38.9784 13.1187 39.1368 12.8925C39.1929 12.8138 44.8245 5.0332 55.408 8.40039" fill="#12B76A"/>
<path d="M42.5949 22.2921C42.5212 22.2764 42.4517 22.241 42.3925 22.1873C42.1992 22.0108 42.1793 21.6917 42.3495 21.4765C42.5285 21.2495 46.795 15.9289 53.0622 16.1559C53.3144 16.167 53.515 16.3981 53.496 16.6781C53.4789 16.9568 53.2559 17.1761 52.9988 17.1656C47.2028 16.9555 43.0933 22.0632 43.0522 22.116C42.9353 22.2656 42.7572 22.3268 42.5949 22.2921Z" fill="#12B76A"/>
<path d="M73.4649 63.3246C73.259 63.2806 73.1066 63.0889 73.1037 62.8521C73.1003 62.5742 73.3079 62.3379 73.567 62.3248C73.6605 62.3208 82.9142 61.7606 85.301 53.0265C85.3759 52.7567 85.6391 52.599 85.8828 52.6648C86.1319 52.7351 86.2709 53.0113 86.1975 53.2814C83.6109 62.7446 73.6762 63.3287 73.5763 63.333C73.5381 63.3351 73.501 63.3323 73.4649 63.3246Z" fill="#12B76A"/>
<path d="M23.0063 52.6048C11.9211 49.2536 12.1482 38.0627 12.1518 37.9505C12.1595 37.6715 12.3775 37.446 12.6355 37.4447C12.8955 37.442 13.0948 37.6712 13.0874 37.9485C13.0745 38.377 12.8946 48.4863 23.2528 51.6205C23.4993 51.6954 23.6365 51.9729 23.5586 52.242C23.4849 52.4983 23.2427 52.6536 23.0067 52.6032L23.0063 52.6048Z" fill="#12B76A"/>
<path d="M26.2412 50.31C15.156 46.9588 15.3831 35.7678 15.3866 35.6556C15.3944 35.3766 15.6123 35.1511 15.8704 35.1498C16.1303 35.1472 16.3297 35.3763 16.3223 35.6537C16.3093 36.0821 16.1295 46.1914 26.4877 49.3256C26.7342 49.4005 26.8714 49.678 26.7934 49.9471C26.7198 50.2035 26.4776 50.3588 26.2416 50.3083L26.2412 50.31Z" fill="#12B76A"/>
</g>
<defs>
<clipPath id="clip0_8578_2915">
<rect width="84.058" height="79.1817" fill="white" transform="translate(16.5476) rotate(12.0628)"/>
</clipPath>
</defs>
</svg>
