<svg width="90" height="69" viewBox="0 0 90 69" fill="none" xmlns="http://www.w3.org/2000/svg">
<path d="M71.5903 67.4817L4.73487 48.4843C2.12504 47.7427 0.558427 45.1735 1.2451 42.757L12.1496 4.38187C12.8359 1.96664 15.5185 0.603462 18.1297 1.34546L84.9851 20.3429C87.5963 21.0848 89.1615 23.6537 88.4749 26.0702L77.5703 64.4453C76.884 66.8605 74.2015 68.2237 71.5903 67.4817ZM17.687 2.90334C16.005 2.42539 14.2771 3.30273 13.8348 4.85933L2.93025 43.2344C2.48793 44.791 3.49627 46.4459 5.17828 46.9238L72.0337 65.9212C73.7157 66.3992 75.445 65.5223 75.8873 63.9657L86.7915 25.5918C87.2338 24.0352 86.2254 22.3804 84.542 21.902L17.6866 2.90462L17.687 2.90334Z" fill="#12B76A"/>
<path d="M85.4765 33.4199L10.836 12.2103C10.3707 12.0781 10.0933 11.6228 10.2157 11.1922C10.338 10.7616 10.8134 10.5202 11.2787 10.6524L85.9205 31.8624C86.3858 31.9946 86.6633 32.4499 86.5409 32.8805C86.4185 33.3111 85.9431 33.5525 85.4779 33.4203L85.4765 33.4199Z" fill="#12B76A"/>
<path d="M43.8467 54.5457C41.9897 54.018 40.8759 52.1901 41.3643 50.4716C41.8526 48.753 43.7612 47.7839 45.6182 48.3116C47.4752 48.8393 48.589 50.6672 48.1006 52.3858C47.6123 54.1043 45.7037 55.0734 43.8467 54.5457ZM45.1751 49.8708C44.2459 49.6067 43.293 50.0917 43.0491 50.9503C42.8051 51.809 43.362 52.7229 44.2898 52.9866C45.2176 53.2502 46.1719 52.7657 46.4159 51.907C46.6598 51.0484 46.103 50.1344 45.1751 49.8708Z" fill="#12B76A"/>
<path d="M71.0967 54.7112C69.2397 54.1835 68.1259 52.3556 68.6143 50.6371C69.1026 48.9185 71.0112 47.9494 72.8682 48.4771C74.7252 49.0048 75.839 50.8327 75.3506 52.5513C74.8623 54.2698 72.9537 55.2389 71.0967 54.7112ZM72.4251 50.0363C71.4959 49.7722 70.543 50.2572 70.2991 51.1158C70.0551 51.9745 70.612 52.8884 71.5398 53.152C72.4676 53.4157 73.4219 52.9312 73.6659 52.0725C73.9098 51.2139 73.353 50.2999 72.4251 50.0363Z" fill="#12B76A"/>
<path d="M47.0359 52.9264C46.6776 52.8246 46.4063 52.5169 46.3887 52.1507C46.3667 51.6999 46.7377 51.3344 47.2187 51.3322L69.0855 51.2306C69.563 51.2301 69.9737 51.5913 69.9944 52.0417C70.0164 52.4925 69.6453 52.858 69.1643 52.8603L47.2976 52.9618C47.2073 52.9626 47.1193 52.9501 47.0359 52.9264Z" fill="#12B76A"/>
<path d="M14.6001 45.3933C12.7431 44.8656 11.6293 43.0377 12.1177 41.3192C12.606 39.6006 14.5146 38.6315 16.3716 39.1592C18.2286 39.6869 19.3424 41.5148 18.8541 43.2334C18.3657 44.9519 16.4572 45.921 14.6001 45.3933ZM15.9286 40.7184C14.9994 40.4543 14.0465 40.9393 13.8025 41.7979C13.5585 42.6566 14.1154 43.5705 15.0432 43.8342C15.971 44.0978 16.9253 43.6132 17.1693 42.7546C17.4133 41.896 16.8564 40.982 15.9286 40.7184Z" fill="#12B76A"/>
<path d="M33.032 41.3679C31.175 40.8402 30.0612 39.0123 30.5496 37.2937C31.0379 35.5752 32.9465 34.6061 34.8035 35.1338C36.6605 35.6614 37.7743 37.4893 37.2859 39.2079C36.7976 40.9265 34.889 41.8956 33.032 41.3679ZM34.3604 36.6929C33.4312 36.4289 32.4783 36.9138 32.2344 37.7725C31.9904 38.6311 32.5473 39.5451 33.4751 39.8087C34.4029 40.0723 35.3572 39.5878 35.6012 38.7292C35.8451 37.8705 35.2883 36.9566 34.3604 36.6929Z" fill="#12B76A"/>
<path d="M18.455 41.4363C18.1716 41.3558 17.9339 41.1466 17.8424 40.8608C17.7021 40.425 17.9619 39.9807 18.4235 39.8673L31.1394 36.7446C31.5982 36.6304 32.0851 36.8924 32.2251 37.3295C32.3655 37.7653 32.1056 38.2096 31.6441 38.323L18.9281 41.4458C18.7683 41.4851 18.605 41.4789 18.455 41.4363Z" fill="#12B76A"/>
<path d="M41.9844 51.491C41.7844 51.4341 41.6016 51.3113 41.4788 51.1306L35.0519 41.725C34.7878 41.3388 34.9 40.8386 35.302 40.607C35.7023 40.3762 36.2434 40.5008 36.5074 40.887L42.9347 50.2913C43.1988 50.6775 43.0867 51.1777 42.6846 51.4093C42.4693 51.5329 42.2153 51.5552 41.9848 51.4897L41.9844 51.491Z" fill="#12B76A"/>
<path d="M29.9684 21.7005L34.0436 22.8585C37.2409 23.767 39.1167 25.3752 38.2941 28.2699C37.4716 31.1646 34.9879 31.7382 31.8655 30.851L29.5196 30.1844L28.0308 35.4236L26.2141 34.9074L29.967 21.7001L29.9684 21.7005ZM32.0253 29.4225C34.5212 30.1317 35.9493 29.6332 36.4833 27.754C37.0173 25.8747 35.9357 24.8686 33.4286 24.1562L31.398 23.5792L29.9085 28.821L32.0267 29.4229L32.0253 29.4225Z" fill="#12B76A"/>
<path d="M42.2883 25.2013L44.1051 25.7175L42.5334 31.2485L49.1698 33.1343L50.7414 27.6033L52.5568 28.1191L48.8038 41.3265L46.9885 40.8106L48.753 34.6009L42.1166 32.7152L40.3521 38.9248L38.5354 38.4086L42.2883 25.2013Z" fill="#12B76A"/>
<path d="M56.4653 29.2297L60.5404 30.3877C63.7378 31.2963 65.6135 32.9045 64.7909 35.7992C63.9684 38.6938 61.4847 39.2675 58.3623 38.3803L56.0164 37.7137L54.5277 42.9529L52.7109 42.4366L56.4639 29.2293L56.4653 29.2297ZM58.5221 36.9518C61.018 37.661 62.4461 37.1624 62.9801 35.2832C63.5141 33.404 62.4325 32.3979 59.9255 31.6855L57.8948 31.1085L56.4053 36.3503L58.5235 36.9522L58.5221 36.9518Z" fill="#12B76A"/>
<path d="M15.236 12.7327C15.168 12.7133 15.1029 12.6782 15.0481 12.6279C14.8732 12.467 14.8654 12.2092 15.0302 12.0518L22.5173 4.91633C22.6821 4.75895 22.9591 4.76127 23.1323 4.92301C23.3073 5.08386 23.3151 5.34168 23.1503 5.49906L15.6632 12.6346C15.5499 12.7427 15.3846 12.7749 15.236 12.7327Z" fill="#12B76A"/>
<path d="M12.7111 12.0151C12.6458 11.9966 12.5832 11.9635 12.5291 11.9162C12.352 11.7575 12.3379 11.5007 12.5007 11.3399L20.0984 3.81496C20.2612 3.65422 20.5348 3.65279 20.7133 3.81185C20.8903 3.97053 20.9044 4.22736 20.7416 4.38809L13.1439 11.9131C13.0309 12.0254 12.8621 12.0594 12.7107 12.0164L12.7111 12.0151Z" fill="#12B76A"/>
<path d="M4.47511 44.2C4.24177 44.1337 4.10394 43.9056 4.16494 43.6909L12.1354 15.6413C12.1968 15.4253 12.435 15.3055 12.6669 15.3714C12.8989 15.4373 13.0381 15.6658 12.9771 15.8804L5.00664 43.9301C4.94527 44.146 4.70707 44.2659 4.47511 44.2Z" fill="#12B76A"/>
<path d="M9.48078 32.992C9.24744 32.9256 9.10961 32.6976 9.1706 32.4829L13.8202 16.12C13.8816 15.904 14.1198 15.7842 14.3518 15.8501C14.5837 15.916 14.7229 16.1445 14.6619 16.3591L10.0123 32.7221C9.95095 32.938 9.71274 33.0579 9.48078 32.992Z" fill="#12B76A"/>
<path d="M71.8307 63.3394L28.8929 51.1384C28.6595 51.0721 28.5217 50.844 28.5827 50.6293C28.6437 50.4147 28.8823 50.2935 29.1142 50.3594L72.052 62.5605C72.2853 62.6268 72.4232 62.8549 72.3622 63.0695C72.3012 63.2842 72.0626 63.4053 71.8307 63.3394Z" fill="#12B76A"/>
<path d="M76.7416 30.842C76.679 30.8242 76.6202 30.7936 76.5681 30.7496C76.3868 30.5953 76.3654 30.3378 76.523 30.1742L83.9648 22.3952C84.1224 22.2316 84.3968 22.222 84.5781 22.3763C84.7594 22.5306 84.7808 22.7882 84.6232 22.9518L77.1814 30.7308C77.0687 30.8474 76.8971 30.8862 76.7402 30.8416L76.7416 30.842Z" fill="#12B76A"/>
<path d="M75.0134 29.7188C74.9495 29.7006 74.8893 29.6696 74.8376 29.6244C74.6566 29.4688 74.6398 29.2112 74.7973 29.0475L82.5057 21.1331C82.6647 20.9699 82.9394 20.9646 83.1207 21.1189C83.3017 21.2745 83.3185 21.5322 83.161 21.6958L75.4525 29.6102C75.3402 29.7255 75.1689 29.763 75.0148 29.7192L75.0134 29.7188Z" fill="#12B76A"/>
<path d="M79.6441 31.0346C79.5789 31.0161 79.5162 30.983 79.4625 30.9344C79.2854 30.7757 79.2717 30.5176 79.4341 30.3581L86.3896 23.4925C86.552 23.3331 86.8278 23.3295 87.0045 23.4894C87.1815 23.6481 87.1953 23.9062 87.0329 24.0657L80.0773 30.9313C79.9647 31.0424 79.7959 31.0764 79.6445 31.0333L79.6441 31.0346Z" fill="#12B76A"/>
</svg>
