<svg width="103" height="135" viewBox="0 0 103 135" fill="none" xmlns="http://www.w3.org/2000/svg">
<g clip-path="url(#clip0_8578_2925)">
<path d="M9.99623 26.8673C5.91242 20.6225 7.67011 12.2214 13.9149 8.13759C20.1596 4.05378 28.5607 5.81147 32.6445 12.0562C36.7283 18.301 34.9707 26.7021 28.7259 30.7859C22.4812 34.8697 14.08 33.112 9.99623 26.8673Z" fill="#12B76A"/>
<path d="M31.4206 12.8566C27.7786 7.28742 20.2844 5.71948 14.7152 9.36149C9.146 13.0035 7.57806 20.4977 11.2201 26.0669C14.8621 31.6361 22.3563 33.204 27.9255 29.562C33.4946 25.92 35.0626 18.4258 31.4206 12.8566Z" fill="#12B76A"/>
<path d="M72.1245 112.517L20.085 32.9406C19.8638 32.6023 19.9585 32.1497 20.2968 31.9285C20.6351 31.7073 21.0877 31.802 21.3089 32.1403L73.3484 111.716C74.2313 113.066 76.0485 113.447 77.3986 112.564L84.1321 108.16C85.4823 107.277 85.8631 105.461 84.9795 104.11L32.8067 24.33C32.5854 23.9917 32.6801 23.5391 33.0184 23.3178C33.3567 23.0966 33.8093 23.1913 34.0306 23.5296L86.2034 103.31C87.5281 105.335 86.9582 108.059 84.9325 109.384L78.199 113.788C76.1733 115.112 73.4492 114.542 72.1245 112.517Z" fill="#12B76A"/>
<path d="M8.99674 24.0318C8.91023 23.8996 8.83537 23.7741 8.77217 23.6554C8.58255 23.2993 8.718 22.8561 9.07509 22.6658C9.43117 22.4762 9.86741 22.6075 10.0647 22.9687C10.6722 24.127 12.844 26.3038 16.0586 27.2622C19.0763 28.1621 22.1741 27.7581 25.2657 26.0593C33.0438 21.7873 30.7443 11.8094 30.7208 11.7095C30.6269 11.3168 30.869 10.922 31.261 10.8271C31.6538 10.7332 32.0475 10.976 32.1434 11.3674C32.1699 11.4784 34.7165 22.5373 25.9708 27.3426C22.5722 29.209 19.001 29.6674 15.6422 28.6648C12.2818 27.6619 9.94408 25.4783 8.99841 24.0322L8.99674 24.0318Z" fill="#12B76A"/>
<path d="M34.0197 31.0854L34.9027 32.4355L33.3314 33.4631L32.4667 33.942C33.001 34.08 33.6106 34.3156 34.0168 34.9366C34.6646 35.9273 34.2419 36.8064 33.1028 37.5513L30.2753 39.4004L29.3923 38.0502L32.0472 36.3141C32.7025 35.8855 32.7926 35.5757 32.5377 35.1859C32.3158 34.8466 32.0229 34.7426 31.544 34.632L28.4711 36.6415L27.5882 35.2914L34.0208 31.0847L34.0197 31.0854Z" fill="#12B76A"/>
<path d="M32.6975 39.4914L34.5374 38.2881L34.1306 37.6661L35.1374 37.0077L35.6452 37.6718L36.958 37.0382L37.6877 38.1541L36.478 38.9452L37.1919 40.0368L36.1326 40.7296L35.4187 39.6379L33.5949 40.8306C33.0789 41.168 33.0241 41.5384 33.2566 41.8938C33.355 42.0443 33.5047 42.1785 33.6267 42.2702L32.7855 43.1245C32.5503 42.9324 32.2468 42.6623 31.9582 42.221C31.2219 41.095 31.6402 40.1828 32.6955 39.4927L32.6975 39.4914Z" fill="#12B76A"/>
<path d="M34.7795 42.6754L36.6194 41.4721L36.2127 40.8501L37.2194 40.1917L37.7273 40.8558L39.0401 40.2222L39.7698 41.338L38.56 42.1292L39.2739 43.2208L38.2146 43.9135L37.5007 42.8219L35.677 44.0146C35.1609 44.352 35.1061 44.7223 35.3386 45.0778C35.437 45.2283 35.5867 45.3625 35.7087 45.4542L34.8675 46.3085C34.6323 46.1164 34.3288 45.8463 34.0402 45.405C33.3039 44.279 33.7223 43.3668 34.7775 42.6767L34.7795 42.6754Z" fill="#12B76A"/>
<path d="M39.7619 43.9645L40.4817 45.0652L40.0967 45.4553L40.1185 45.4886C40.6714 45.6374 41.2145 45.9454 41.5255 46.4211C42.2467 47.5238 41.7759 48.7947 40.3723 49.7126C38.8091 50.7349 37.3041 50.3913 36.6589 49.4047C36.4027 49.0129 36.3333 48.532 36.424 48.0071L35.7337 48.5234L34.3987 49.3964L33.5158 48.0462L39.7605 43.9624L39.7619 43.9645ZM39.4531 48.3401C40.271 47.8052 40.5149 47.2853 40.1623 46.746C39.9807 46.4683 39.7006 46.3112 39.2425 46.2302L37.3723 47.4532C37.3187 47.8386 37.4097 48.1409 37.559 48.3692C37.8667 48.8397 38.5099 48.9569 39.4531 48.3401Z" fill="#12B76A"/>
<path d="M42.2439 49.5986C42.7246 49.2842 43.3224 49.3893 43.6281 49.8568C43.9339 50.3244 43.7905 50.9141 43.3098 51.2284C42.8291 51.5428 42.235 51.4368 41.9286 50.9682C41.6222 50.4997 41.7663 49.9109 42.2439 49.5986ZM39.269 51.5441C39.7497 51.2297 40.3474 51.3348 40.6532 51.8023C40.959 52.2698 40.8155 52.8596 40.3349 53.1739C39.8542 53.4883 39.2601 53.3823 38.9537 52.9137C38.6473 52.4452 38.7913 51.8564 39.269 51.5441Z" fill="#12B76A"/>
<path d="M47.6745 51.7781L48.2503 52.6587L39.0535 56.0333L38.4776 55.1528L47.6745 51.7781Z" fill="#12B76A"/>
<path d="M49.611 54.7399L50.1869 55.6205L40.99 58.9951L40.4142 58.1145L49.611 54.7399Z" fill="#12B76A"/>
<path d="M74.5732 110.915L42.1491 61.334C42.0315 61.1542 41.9987 60.9321 42.0594 60.7251C42.1208 60.5192 42.2695 60.3498 42.4671 60.2639L50.6129 56.6842C50.9402 56.5408 51.3233 56.655 51.5188 56.9539L83.1425 105.311C83.3638 105.65 83.2691 106.102 82.9308 106.323L75.5853 111.127C75.247 111.348 74.7944 111.254 74.5732 110.915ZM43.8451 61.2556L75.3969 109.503L81.5184 105.5L50.6343 58.2733L43.8458 61.2566L43.8451 61.2556Z" fill="#12B76A"/>
<path d="M18.4711 9.09088C18.45 9.05856 18.4339 9.02295 18.4239 8.98337C18.3724 8.78781 18.4889 8.58905 18.6845 8.53757C25.5376 6.73316 29.5408 11.338 29.5799 11.3846C29.7091 11.538 29.6913 11.7687 29.5376 11.8996C29.3838 12.0304 29.154 12.012 29.0222 11.8589C28.8718 11.6818 25.2649 7.5617 18.8687 9.24466C18.7127 9.28612 18.554 9.21979 18.4701 9.09154L18.4711 9.09088Z" fill="#12B76A"/>
<path d="M11.6436 24.0426C11.6344 24.0284 11.6245 24.0133 11.6183 23.9972C7.14591 14.4268 15.6655 9.60648 15.7513 9.55905C15.9285 9.46189 16.1465 9.51971 16.2476 9.703C16.3448 9.88022 16.2809 10.1022 16.1037 10.1994C15.7754 10.3809 8.10089 14.7452 12.2813 23.6861C12.3667 23.8696 12.2881 24.0868 12.1047 24.1722C11.9377 24.2497 11.7424 24.1914 11.644 24.0409L11.6436 24.0426Z" fill="#12B76A"/>
<path d="M18.6584 10.7156C18.6373 10.6833 18.6212 10.6477 18.6112 10.6081C18.5597 10.4126 18.6762 10.2138 18.8718 10.1623C19.062 10.1115 23.5657 8.95826 25.8996 11.1184C26.0483 11.2532 26.0569 11.4869 25.9198 11.6343C25.7832 11.7827 25.5512 11.7917 25.4032 11.6535C23.3614 9.76365 19.1013 10.8571 19.058 10.8681C18.902 10.9096 18.7433 10.8432 18.6594 10.715L18.6584 10.7156Z" fill="#12B76A"/>
</g>
<defs>
<clipPath id="clip0_8578_2925">
<rect width="140.479" height="30.0138" fill="white" transform="translate(25.239 0.732056) rotate(56.817)"/>
</clipPath>
</defs>
</svg>
