<svg width="80" height="80" viewBox="0 0 80 80" fill="none" xmlns="http://www.w3.org/2000/svg">
<path d="M67.5 21.25C67.5 28.8433 55.1867 35 40 35C24.8133 35 12.5 28.8433 12.5 21.25M67.5 21.25C67.5 13.6567 55.1867 7.5 40 7.5C24.8133 7.5 12.5 13.6567 12.5 21.25M67.5 21.25V58.75C67.5 66.3433 55.1867 72.5 40 72.5C24.8133 72.5 12.5 66.3433 12.5 58.75V21.25M67.5 21.25V33.75M12.5 21.25V33.75M67.5 33.75V46.25C67.5 53.8433 55.1867 60 40 60C24.8133 60 12.5 53.8433 12.5 46.25V33.75M67.5 33.75C67.5 41.3433 55.1867 47.5 40 47.5C24.8133 47.5 12.5 41.3433 12.5 33.75" stroke="black" stroke-width="1.5" stroke-linecap="round" stroke-linejoin="round"/>
</svg>
