<svg width="57" height="60" viewBox="0 0 57 60" fill="none" xmlns="http://www.w3.org/2000/svg">
<path d="M56.045 33.6967C56.045 47.7799 44.6283 59.1967 30.545 59.1967C16.4617 59.1967 5.045 47.7799 5.045 33.6967C5.045 19.6134 -12.955 -2.30322 19.045 0.196777C51.045 2.69678 56.045 19.6134 56.045 33.6967Z" fill="#CFEDD6"/>
<path d="M38.0257 28.3748L34.5257 30.5873L27.4507 23.5123L29.6507 20.0123C30.6757 18.3998 32.7257 18.3248 34.2382 19.8248L38.2132 23.7998C39.6257 25.2123 39.5382 27.4123 38.0257 28.3748Z" fill="#34A853"/>
<path opacity="0.4" d="M31.3879 39.9376L20.5004 41.2251C19.7504 41.3126 19.0754 41.2001 18.5129 40.9251C17.9004 40.6251 17.4254 40.1501 17.1254 39.5376C16.8504 38.9751 16.7504 38.3001 16.8254 37.5626L18.1254 26.6626C18.4379 23.9376 19.4504 23.0501 22.3254 23.2126L27.4754 23.5251L34.5504 30.6001L34.8504 35.7501C35.1129 38.6251 34.1254 39.6251 31.3879 39.9376Z" fill="#34A853"/>
<path d="M22.9738 36.4378L18.4988 40.9128C17.8863 40.6128 17.4113 40.1378 17.1113 39.5253L21.5988 35.0378C21.9863 34.6628 22.6113 34.6628 22.9863 35.0378C23.3738 35.4378 23.3738 36.0503 22.9738 36.4378Z" fill="#34A853"/>
</svg>
