<svg width="113" height="24" viewBox="0 0 113 24" fill="none" xmlns="http://www.w3.org/2000/svg">
<path d="M112.361 10.8515V8.87546H109.908V5.80351L109.825 5.82895L107.52 6.53414L107.475 6.54794V8.87557H103.837V7.57888C103.837 6.9751 103.972 6.51305 104.238 6.20491C104.502 5.90046 104.88 5.74569 105.362 5.74569C105.709 5.74569 106.068 5.82732 106.429 5.98829L106.519 6.02872V3.94771L106.477 3.93206C106.14 3.81098 105.682 3.75 105.114 3.75C104.398 3.75 103.748 3.90576 103.18 4.21444C102.613 4.52356 102.167 4.96485 101.854 5.52591C101.542 6.08633 101.384 6.73359 101.384 7.44986V8.87546H99.6755V10.8515H101.384V19.1761H103.837V10.8515H107.475V16.1416C107.475 18.3203 108.502 19.4244 110.529 19.4244C110.862 19.4244 111.213 19.3854 111.571 19.309C111.935 19.2305 112.183 19.1521 112.329 19.0685L112.362 19.0493V17.0551L112.262 17.121C112.129 17.2097 111.963 17.2822 111.769 17.3361C111.573 17.391 111.41 17.4185 111.284 17.4185C110.809 17.4185 110.458 17.2906 110.24 17.0381C110.02 16.7833 109.908 16.3378 109.908 15.7146V10.8515H112.361ZM94.1979 17.4188C93.3076 17.4188 92.6057 17.1236 92.111 16.5421C91.6133 15.9577 91.3611 15.1245 91.3611 14.0658C91.3611 12.9736 91.6133 12.1187 92.1112 11.524C92.6062 10.9331 93.3014 10.6332 94.1779 10.6332C95.0284 10.6332 95.7054 10.9196 96.1904 11.4849C96.6778 12.0532 96.9252 12.9012 96.9252 14.0061C96.9252 15.1247 96.6926 15.9839 96.2339 16.5587C95.7784 17.1291 95.0934 17.4188 94.1979 17.4188ZM94.3069 8.62732C92.6084 8.62732 91.2593 9.12502 90.2974 10.1066C89.3361 11.0883 88.8487 12.4469 88.8487 14.1448C88.8487 15.7576 89.3245 17.0548 90.2629 17.9999C91.2014 18.9453 92.4785 19.4242 94.0586 19.4242C95.705 19.4242 97.0272 18.9195 97.9887 17.9244C98.9501 16.9303 99.4372 15.5846 99.4372 13.9263C99.4372 12.2883 98.9801 10.9814 98.0783 10.0426C97.176 9.10339 95.907 8.62732 94.3069 8.62732ZM84.894 8.62732C83.7386 8.62732 82.7829 8.92285 82.0528 9.50555C81.3183 10.0917 80.9457 10.8605 80.9457 11.7908C80.9457 12.2744 81.0261 12.7039 81.1844 13.0682C81.3436 13.4338 81.59 13.7556 81.9174 14.0257C82.2423 14.2936 82.7438 14.5743 83.4083 14.8598C83.967 15.0897 84.3836 15.2841 84.6482 15.4374C84.9069 15.5876 85.0905 15.7386 85.1942 15.8856C85.295 16.0295 85.346 16.2265 85.346 16.4695C85.346 17.1616 84.8278 17.4983 83.7614 17.4983C83.3659 17.4983 82.9147 17.4157 82.4205 17.2529C81.9298 17.0925 81.4667 16.8577 81.0473 16.5566L80.9454 16.4836V18.8451L80.9828 18.8625C81.3299 19.0227 81.7675 19.1578 82.2832 19.2641C82.798 19.3705 83.2657 19.4246 83.672 19.4246C84.9257 19.4246 85.9354 19.1277 86.6721 18.5415C87.4135 17.9513 87.7892 17.1644 87.7892 16.2019C87.7892 15.5076 87.5869 14.9122 87.1883 14.432C86.7923 13.9557 86.105 13.5184 85.1465 13.1319C84.3828 12.8254 83.8936 12.571 83.6918 12.3757C83.4972 12.187 83.3984 11.9201 83.3984 11.5822C83.3984 11.2827 83.5204 11.0427 83.7707 10.8483C84.0229 10.653 84.3741 10.5537 84.8145 10.5537C85.2232 10.5537 85.6414 10.6182 86.0572 10.7447C86.4727 10.8713 86.8377 11.0407 87.1424 11.248L87.2426 11.3165V9.07633L87.2041 9.0598C86.923 8.93927 86.5524 8.83612 86.1022 8.75242C85.6541 8.66928 85.2476 8.62732 84.894 8.62732ZM74.5512 17.4188C73.6612 17.4188 72.959 17.1236 72.4645 16.5421C71.9667 15.9577 71.7149 15.1247 71.7149 14.0658C71.7149 12.9736 71.967 12.1187 72.465 11.524C72.9595 10.9331 73.6546 10.6332 74.5316 10.6332C75.3817 10.6332 76.0588 10.9196 76.5439 11.4849C77.0314 12.0532 77.2786 12.9012 77.2786 14.0061C77.2786 15.1247 77.0459 15.9839 76.5872 16.5587C76.1317 17.1291 75.4471 17.4188 74.5512 17.4188ZM74.6606 8.62732C72.9616 8.62732 71.6124 9.12502 70.651 10.1066C69.6898 11.0883 69.2021 12.4469 69.2021 14.1448C69.2021 15.7583 69.6782 17.0548 70.6166 17.9999C71.555 18.9453 72.8321 19.4242 74.4121 19.4242C76.0583 19.4242 77.3809 18.9195 78.3424 17.9244C79.3036 16.9303 79.7908 15.5846 79.7908 13.9263C79.7908 12.2883 79.3337 10.9814 78.4316 10.0426C77.5292 9.10339 76.2603 8.62732 74.6606 8.62732ZM65.4787 10.6593V8.87546H63.0558V19.1758H65.4787V13.9068C65.4787 13.0109 65.6819 12.2748 66.0827 11.7188C66.4785 11.1695 67.0059 10.8912 67.6497 10.8912C67.868 10.8912 68.113 10.9271 68.3783 10.9983C68.6409 11.0691 68.8311 11.1459 68.9433 11.2268L69.0451 11.3006V8.85786L69.0059 8.84101C68.7802 8.74514 68.461 8.69677 68.0571 8.69677C67.4482 8.69677 66.9034 8.89242 66.4366 9.27762C66.027 9.6162 65.7309 10.0804 65.5045 10.6593H65.4787ZM58.7167 8.62732C57.6051 8.62732 56.6136 8.86568 55.7703 9.33556C54.9252 9.80652 54.2717 10.4789 53.827 11.3339C53.3843 12.1868 53.1595 13.183 53.1595 14.2941C53.1595 15.2673 53.3775 16.1604 53.8082 16.9476C54.2392 17.736 54.8491 18.3528 55.6213 18.7806C56.3923 19.2079 57.2835 19.4245 58.2702 19.4245C59.4217 19.4245 60.4048 19.1943 61.193 18.7403L61.2249 18.7221V16.5022L61.123 16.5766C60.766 16.8367 60.367 17.0443 59.9376 17.1939C59.5094 17.3433 59.119 17.4188 58.7766 17.4188C57.8259 17.4188 57.0626 17.1214 56.5086 16.5349C55.9534 15.9476 55.6719 15.123 55.6719 14.0853C55.6719 13.0411 55.9655 12.1952 56.5441 11.5711C57.1209 10.9489 57.8855 10.6332 58.8166 10.6332C59.613 10.6332 60.389 10.9029 61.1233 11.4355L61.2249 11.5093V9.17034L61.1921 9.15187C60.9158 8.9972 60.5389 8.86949 60.0711 8.77264C59.6053 8.67601 59.1496 8.62732 58.7167 8.62732ZM51.4908 8.87557H49.0678V19.1758H51.4908V8.87557ZM50.3041 4.48758C49.9053 4.48758 49.5575 4.62334 49.2717 4.89235C48.9848 5.16212 48.8393 5.50178 48.8393 5.90264C48.8393 6.29719 48.9831 6.63066 49.2673 6.89325C49.5497 7.15509 49.8986 7.2878 50.3042 7.2878C50.7097 7.2878 51.0599 7.15509 51.3457 6.89369C51.6333 6.63065 51.7791 6.2973 51.7791 5.90264C51.7791 5.5158 51.6372 5.17962 51.3575 4.90322C51.0781 4.62736 50.7235 4.48758 50.3041 4.48758ZM44.2587 8.1156V19.1758H46.7314V4.8029H43.309L38.959 15.4787L34.7375 4.8029H31.1758V19.1757H33.4995V8.11451H33.5793L38.037 19.1758H39.7907L44.1789 8.1156H44.2587Z" fill="#706D6E"/>
<path d="M11.3983 11.3983H0V0H11.3983V11.3983Z" fill="#F1511B"/>
<path d="M23.984 11.3983H12.5859V0H23.984V11.3983Z" fill="#80CC28"/>
<path d="M11.3979 23.988H0V12.5898H11.3979V23.988Z" fill="#00ADEF"/>
<path d="M23.984 23.988H12.5859V12.5898H23.984V23.988Z" fill="#FBBC09"/>
</svg>
