<svg width="130" height="36" viewBox="0 0 130 36" fill="none" xmlns="http://www.w3.org/2000/svg">
<path d="M117.363 0.938869C119.616 1.64192 121.893 2.30639 124.117 3.05768C126.216 3.76273 127.93 5.09011 129.034 7.38958C129.319 7.98408 129.511 8.69219 129.467 9.68811C129.378 11.8977 128.044 14.5828 126.08 16.106C123.347 18.2302 120.572 20.4625 118.08 21.5642C116.156 22.417 114.08 23.6975 112.117 24.6465C110.851 25.2586 109.593 25.7941 108.456 26.072C106.517 26.5445 106.405 25.0576 108.017 21.4023C109.877 17.1935 111.845 12.9641 113.437 8.81609C113.949 7.48871 114.479 6.14677 114.174 5.44247C114.159 5.40438 114.163 5.32536 114.169 5.26069C114.301 3.99803 114.365 2.63334 115.644 0.94911C116.893 -0.701228 116.893 0.708084 117.344 0.953479L117.363 0.938869Z" fill="black"/>
<path d="M76.8202 18.4244C76.1731 18.1529 76.0221 17.7744 76.4084 16.8387C76.8475 15.7754 77.4583 15.1598 78.0665 14.7476C79.0017 14.111 79.7276 14.0131 80.4558 13.9032C85.1338 13.2254 89.4692 13.2675 93.8046 13.3096C98.8213 13.3596 104.5 11.9679 109.714 11.5799C110.497 11.522 112.171 10.7419 111.482 12.3706C110.724 14.1558 109.511 13.9154 108.613 14.2907C99.5726 18.0683 91.8529 18.85 84.5572 18.681C81.843 18.6156 79.1544 18.4996 76.8226 18.4125L76.8202 18.4244Z" fill="black"/>
<path d="M16.9583 31.5633C16.4484 31.3186 16.3081 31.0021 16.6431 30.1675C17.0192 29.2248 17.5609 28.5885 18.1129 28.2057C18.6224 27.8617 19.1289 27.5705 19.5874 27.3827C27.1994 24.2002 34.2307 22.3795 40.4905 22.3489C41.1127 22.3432 42.4734 21.7968 41.8313 23.2527C40.9817 25.1802 40.0142 24.7955 39.2471 25.0973C32.0866 27.9367 25.4806 29.4098 18.6831 31.3519C17.9582 31.5599 17.3422 31.5152 16.9641 31.5536L16.9583 31.5633Z" fill="black"/>
<path d="M48.5408 23.5345C48.1828 23.3405 48.07 23.0022 48.374 22.1872C48.7226 21.2662 49.2497 20.6063 49.8193 20.0988C50.6938 19.3243 51.415 19.0589 52.0557 18.943C58.4056 17.7435 64.7275 16.6067 70.3976 16.878C70.7955 16.8944 71.4666 16.7996 71.0411 17.7765C70.4571 19.1359 69.8278 18.9862 69.3272 19.1721C62.0039 21.8436 55.3407 22.9897 48.9329 23.5605C48.7564 23.5748 48.6032 23.5505 48.535 23.5442L48.5408 23.5345Z" fill="black"/>
<path d="M0.57883 35.6342C0.153219 35.2976 -0.026583 34.7759 0.633297 33.4418C1.21372 32.2715 1.88498 31.6431 2.48471 31.4439C6.30703 30.1718 10.1269 28.9118 13.5 28.696C13.8631 28.6745 14.4691 28.5208 14.1422 29.4294C13.7776 30.4486 13.1319 30.6843 12.684 30.9341C8.63196 33.1686 4.88149 34.6 1.27844 35.6276C0.990673 35.715 0.772234 35.6317 0.584649 35.6246L0.57883 35.6342Z" fill="black"/>
</svg>
