<svg width="57" height="60" viewBox="0 0 57 60" fill="none" xmlns="http://www.w3.org/2000/svg">
<path d="M56.045 33.6967C56.045 47.7799 44.6283 59.1967 30.545 59.1967C16.4617 59.1967 5.045 47.7799 5.045 33.6967C5.045 19.6134 -12.955 -2.30322 19.045 0.196777C51.045 2.69678 56.045 19.6134 56.045 33.6967Z" fill="#CFEDD6"/>
<path d="M22.0276 36.3124H34.7918M22.0276 48.3311H31.7736M22.0276 42.3115H29.508M17.5425 15.7324C17.1418 15.7458 16.7609 15.9686 16.4811 16.3531C16.2013 16.7376 16.0448 17.2534 16.0449 17.7904V53.9083C16.0448 54.4453 16.2013 54.9611 16.4811 55.3457C16.7609 55.7302 17.1418 55.9529 17.5425 55.9663H38.5089C38.9163 55.9663 39.307 55.7495 39.595 55.3635C39.8831 54.9776 40.0449 54.4541 40.0449 53.9083V17.739C40.0349 17.2021 39.8687 16.6918 39.5817 16.3169C39.2947 15.942 38.9097 15.7323 38.5089 15.7324H36.9729V24.8082L34.0084 20.7848L31.0286 24.8082V15.7324H17.5425Z" stroke="#47B163" stroke-width="2" stroke-linecap="round" stroke-linejoin="round"/>
</svg>
