<svg width="57" height="60" viewBox="0 0 57 60" fill="none" xmlns="http://www.w3.org/2000/svg">
<path d="M56.045 34.0983C56.045 48.1816 44.6283 59.5983 30.545 59.5983C16.4617 59.5983 5.045 48.1816 5.045 34.0983C5.045 20.015 -12.955 -1.90161 19.045 0.598389C51.045 3.09839 56.045 20.015 56.045 34.0983Z" fill="#CFEDD6"/>
<g clip-path="url(#clip0_8073_369)">
<g clip-path="url(#clip1_8073_369)">
<path d="M31.8804 40.8188V45.4476L34.0981 46.3706V39.6058C33.4015 40.0835 32.6585 40.4899 31.8804 40.8188ZM19.9019 39.6058V46.3244L22.1196 45.4014V40.8188C21.3415 40.4899 20.5985 40.0836 19.9019 39.6058ZM27 41.8035C25.9528 41.8041 24.9096 41.6737 23.8947 41.4156V48.4016L27 47.1092L30.1053 48.4016V41.4156C29.0904 41.6737 28.0472 41.804 27 41.8035ZM27 18.4016C21.0375 18.4016 16.1866 23.2525 16.1866 29.215C16.1866 35.1776 21.0375 40.0283 27 40.0283C32.9625 40.0283 37.8134 35.1775 37.8134 29.2149C37.8134 23.2524 32.9625 18.4016 27 18.4016ZM27 37.7434C22.2731 37.7434 18.4274 33.8977 18.4274 29.1708C18.4274 24.4438 22.2731 20.5981 27 20.5981C31.7269 20.5981 35.5726 24.4438 35.5726 29.1708C35.5726 33.8978 31.727 37.7434 27 37.7434ZM27 22.3732C23.2519 22.3732 20.2025 25.4225 20.2025 29.1708C20.2025 32.919 23.2519 35.9682 27 35.9682C30.7481 35.9682 33.7975 32.9189 33.7975 29.1707C33.7975 25.4225 30.7482 22.3732 27 22.3732ZM29.7938 33.1379L27 31.6691L24.2062 33.1379L24.7398 30.0271L22.4796 27.8239L25.6032 27.37L27 24.5396L28.3969 27.37L31.5204 27.8239L29.2602 30.0271L29.7938 33.1379Z" fill="#34A853"/>
</g>
</g>
<defs>
<clipPath id="clip0_8073_369">
<rect width="30" height="30" fill="white" transform="translate(13 15.4016)"/>
</clipPath>
<clipPath id="clip1_8073_369">
<rect width="30" height="30" fill="white" transform="translate(12 18.4016)"/>
</clipPath>
</defs>
</svg>
